<?xml version="1.0" encoding="UTF-8"?>
<!DOCTYPE svg PUBLIC "-//W3C//DTD SVG 1.1//EN" "http://www.w3.org/Graphics/SVG/1.1/DTD/svg11.dtd">
<!-- Creator: CorelDRAW X7 -->
<svg xmlns="http://www.w3.org/2000/svg" xml:space="preserve" width="25px" height="25px" version="1.1" style="shape-rendering:geometricPrecision; text-rendering:geometricPrecision; image-rendering:optimizeQuality; fill-rule:evenodd; clip-rule:evenodd"
viewBox="0 0 25 25"
 xmlns:xlink="http://www.w3.org/1999/xlink">
 <defs>
  <style type="text/css">
   <![CDATA[
    .str0 {stroke:#00A544;stroke-width:2.08353}
    .str1 {stroke:#FEFEFE;stroke-width:1.25437;stroke-linecap:round;stroke-linejoin:round}
    .fil5 {fill:none}
    .fil6 {fill:#FEFEFE}
    .fil3 {fill:black}
    .fil4 {fill:#00A544}
    .fil2 {fill:black;fill-rule:nonzero}
    .fil0 {fill:black;fill-rule:nonzero}
    .fil1 {fill:#999999;fill-rule:nonzero}
   ]]>
  </style>
 </defs>
 <g id="Layer_x0020_1">
  <metadata id="CorelCorpID_0Corel-Layer"/>
  <path class="fil0" d="M-13 77l0 -32 12 0c4,0 7,1 9,2 3,2 5,4 6,6 1,2 2,5 2,8 0,3 -1,5 -1,6 -1,2 -2,4 -4,5 -1,2 -3,3 -5,4 -2,0 -4,1 -6,1l-13 0zm7 -26l0 20 5 0c4,0 6,-1 8,-3 2,-1 3,-4 3,-7 0,-3 -1,-5 -3,-7 -2,-2 -4,-3 -8,-3l-5 0z"/>
  <path id="1" class="fil0" d="M20 56l6 0 0 2c0,-1 1,-2 2,-2 1,-1 2,-1 3,-1 2,0 3,1 4,2 1,1 2,2 2,4 0,1 0,2 0,3l-6 0c0,0 0,-1 0,-2 0,0 0,-1 0,-2 -1,0 -1,0 -2,0 -1,0 -2,0 -2,1 -1,0 -1,1 -1,2l0 14 -6 0 0 -21z"/>
  <path id="2" class="fil0" d="M40 66c0,-3 1,-6 3,-8 2,-2 5,-3 8,-3 3,0 6,1 8,3 2,2 3,5 3,8 0,3 -1,6 -3,8 -2,2 -5,3 -8,3 -3,0 -6,-1 -8,-3 -2,-2 -3,-5 -3,-8zm16 0c0,-2 0,-3 -1,-4 -1,-1 -3,-2 -4,-2 -2,0 -3,1 -4,2 -1,1 -2,2 -2,4 0,2 1,3 2,4 1,1 2,2 4,2 1,0 3,-1 4,-2 1,-1 1,-2 1,-4z"/>
  <path id="3" class="fil0" d="M66 56l5 0 0 3c1,-1 2,-2 4,-3 1,-1 2,-1 3,-1 3,0 6,1 8,3 1,2 2,5 2,8 0,3 -1,6 -2,8 -2,2 -5,3 -8,3 -1,0 -3,0 -4,-1 -1,0 -2,-1 -2,-2l0 11 -6 0 0 -29zm11 16c2,0 3,0 4,-1 1,-2 2,-3 2,-5 0,-2 -1,-3 -2,-4 -1,-1 -2,-2 -4,-2 -1,0 -3,1 -4,2 -1,1 -2,2 -2,4 0,2 1,3 2,5 1,1 3,1 4,1z"/>
  <polygon id="4" class="fil1" points="93,77 93,45 99,45 99,77 "/>
  <path id="5" class="fil1" d="M107 70l0 -10 -4 0 0 -4 4 0 0 -7 6 0 0 7 8 0 0 4 -8 0 0 10c0,0 0,1 0,1 1,1 1,1 2,1 2,0 2,-1 3,-3l5 1c0,2 -1,4 -3,5 -1,1 -3,2 -5,2 -2,0 -4,-1 -6,-2 -1,-1 -2,-3 -2,-5z"/>
  <g>
   <path class="fil2" d="M-38 54l-60 0 0 -3 60 0 1 1 -1 2zm0 -3c1,0 1,1 1,2 0,0 0,1 -1,1l0 -3zm11 27l-12 -25 2 -1 12 25 -1 2 -1 -1zm2 -1c0,1 0,2 -1,2 0,0 -1,0 -1,-1l2 -1zm-61 0l60 0 0 2 -60 0 -1 -1 1 -1zm0 2c-1,0 -1,0 -1,-1 0,-1 0,-1 1,-1l0 2zm-11 -27l12 25 -2 1 -12 -25 1 -2 1 1zm-2 1c0,0 0,-1 1,-1 0,-1 1,0 1,0l-2 1z"/>
  </g>
  <g>
   <path class="fil2" d="M-66 36l7 -2 1 3 -8 1 -1 -1 1 -1zm0 2c0,0 -1,0 -1,-1 0,-1 0,-1 1,-1l0 2zm-1 21l0 -22 2 0 0 22 -1 1 -1 -1zm2 0c0,0 0,1 -1,1 -1,0 -1,-1 -1,-1l2 0zm-9 -2l8 0 0 3 -8 0 -1 -1 1 -2zm0 3c-1,0 -2,-1 -2,-1 0,-1 1,-2 2,-2l0 3zm11 13l-12 -14 1 -1 13 13 0 2 -2 0zm2 -2c0,0 0,1 -1,2 0,0 -1,0 -1,0l2 -2zm10 -11l-10 13 -2 -2 11 -13 0 0 1 2zm-1 -2c0,0 1,0 1,0 1,1 1,1 0,2l-1 -2zm-7 0l7 0 0 2 -7 0 -1 -1 1 -1zm0 2c0,0 -1,0 -1,-1 0,-1 1,-1 1,-1l0 2zm2 -25l0 24 -3 0 0 -24 1 -1 2 1zm-3 0c0,0 1,-1 1,-1 1,0 2,1 2,1l-3 0z"/>
   <polygon id="1" class="fil3" points="-59,35 -66,37 -66,59 -74,59 -62,72 -52,59 -59,59 "/>
  </g>
  <circle class="fil4 str0" cx="13" cy="13" r="10"/>
  <g>
   <polygon class="fil5 str1" points="7,11 11,11 11,7 14,7 14,11 18,11 18,14 14,14 14,18 11,18 11,14 7,14 "/>
   <polygon id="1" class="fil6" points="7,11 11,11 11,7 14,7 14,11 18,11 18,14 14,14 14,18 11,18 11,14 7,14 "/>
  </g>
 </g>
</svg>
