<?xml version="1.0" encoding="UTF-8"?>
<!DOCTYPE svg PUBLIC "-//W3C//DTD SVG 1.1//EN" "http://www.w3.org/Graphics/SVG/1.1/DTD/svg11.dtd">
<!-- Creator: CorelDRAW X7 -->
<svg xmlns="http://www.w3.org/2000/svg" xml:space="preserve" width="1481px" height="1472px" version="1.1" style="shape-rendering:geometricPrecision; text-rendering:geometricPrecision; image-rendering:optimizeQuality; fill-rule:evenodd; clip-rule:evenodd"
viewBox="0 0 1223 1217"
 xmlns:xlink="http://www.w3.org/1999/xlink">
 <defs>
  <style type="text/css">
   <![CDATA[
    .str0 {stroke:black;stroke-width:27.5454}
    .str1 {stroke:black;stroke-width:55.0907}
    .fil1 {fill:#FEFEFE}
    .fil0 {fill:black}
    .fil2 {fill:black}
   ]]>
  </style>
 </defs>
 <g id="Layer_x0020_1">
  <metadata id="CorelCorpID_0Corel-Layer"/>
  <rect class="fil0 str0" x="69" y="62" width="1141" height="1141" rx="222" ry="222"/>
  <rect class="fil1 str1" x="28" y="28" width="1141" height="1141" rx="222" ry="222"/>
  <path class="fil2" d="M399 657c7,0 208,-128 225,-140l153 -96c18,-10 58,-42 76,-42 28,0 -26,40 -31,45l-22 20c-6,6 -9,7 -15,13l-258 233c-1,1 -1,1 -2,2 -1,0 -1,1 -3,3 -14,12 -13,21 -16,39 -5,32 -4,71 -8,105 -2,18 -2,36 -2,54l7 7c27,-5 58,-44 76,-61l4 -4c2,-2 1,-2 3,-4l21 -21c17,-21 30,-6 47,6 5,4 8,5 13,9l25 19c39,25 90,74 129,93 21,11 47,6 57,-18l44 -205c4,-27 15,-57 19,-83 5,-36 14,-65 21,-102l31 -146c2,-15 5,-26 8,-41 2,-7 3,-14 4,-20 4,-22 10,-38 -7,-57l-2 -3c-15,-14 -40,-9 -56,-1l-142 55c-7,3 -11,3 -17,6l-141 55c-7,3 -11,4 -16,6 -28,13 -88,31 -112,44l-238 92c-20,10 -44,16 -63,25 -23,11 -36,29 -11,47 12,9 33,13 48,18l151 48z"/>
 </g>
</svg>
