<?xml version="1.0" encoding="UTF-8"?>
<!DOCTYPE svg PUBLIC "-//W3C//DTD SVG 1.1//EN" "http://www.w3.org/Graphics/SVG/1.1/DTD/svg11.dtd">
<!-- Creator: CorelDRAW X7 -->
<svg xmlns="http://www.w3.org/2000/svg" xml:space="preserve" width="54px" height="54px" version="1.1" style="shape-rendering:geometricPrecision; text-rendering:geometricPrecision; image-rendering:optimizeQuality; fill-rule:evenodd; clip-rule:evenodd"
viewBox="0 0 54 54"
 xmlns:xlink="http://www.w3.org/1999/xlink">
 <defs>
  <style type="text/css">
   <![CDATA[
    .str0 {stroke:#ED3237;stroke-width:2.08365}
    .fil1 {fill:#FEFEFE}
    .fil0 {fill:#ED3237}
   ]]>
  </style>
 </defs>
 <g id="Layer_x0020_1">
  <metadata id="CorelCorpID_0Corel-Layer"/>
  <g id="_732480368">
   <rect class="fil0 str0" x="2" y="2" width="50.9596" height="50.9596" rx="6" ry="6"/>
   <g>
    <g>
     <path class="fil1" d="M14 47c0,1 1,1 1,1l24 0c0,0 1,0 1,-1l0 -30 -26 0 0 30 0 0zm18 -25l4 0 0 20 -4 0 0 -20zm-7 0l4 0 0 20 -4 0 0 -20zm-7 0l4 0 0 20 -4 0 0 -20z"/>
     <path class="fil1" d="M35 10l0 -3c0,-1 -1,-1 -1,-1l-14 0c0,0 -1,0 -1,1l0 3 0 1 0 1 -6 0c-1,0 -1,0 -1,0l0 3c0,0 0,1 1,1l1 0 26 0 1 0c1,0 1,-1 1,-1l0 -3c0,0 0,0 -1,0l-6 0 0 -1 0 -1zm-4 1l-8 0 0 0 0 -1 0 0 8 0 0 0 0 1 0 0z"/>
    </g>
   </g>
  </g>
 </g>
</svg>
