<?xml version="1.0" encoding="UTF-8"?>
<!DOCTYPE svg PUBLIC "-//W3C//DTD SVG 1.1//EN" "http://www.w3.org/Graphics/SVG/1.1/DTD/svg11.dtd">
<!-- Creator: CorelDRAW X7 -->
<svg xmlns="http://www.w3.org/2000/svg" xml:space="preserve" width="1481px" height="1472px" version="1.1" style="shape-rendering:geometricPrecision; text-rendering:geometricPrecision; image-rendering:optimizeQuality; fill-rule:evenodd; clip-rule:evenodd"
viewBox="0 0 998 992"
 xmlns:xlink="http://www.w3.org/1999/xlink">
 <defs>
  <style type="text/css">
   <![CDATA[
    .str0 {stroke:black;stroke-width:22.4657}
    .str1 {stroke:black;stroke-width:44.9313}
    .fil1 {fill:#FEFEFE}
    .fil0 {fill:black}
    .fil3 {fill:black}
    .fil2 {fill:white}
   ]]>
  </style>
 </defs>
 <g id="Layer_x0020_1">
  <metadata id="CorelCorpID_0Corel-Layer"/>
  <rect class="fil0 str0" x="56" y="51" width="930" height="930" rx="181" ry="181"/>
  <rect class="fil1 str1" x="22" y="22" width="930" height="930" rx="181" ry="181"/>
  <g id="_873334864">
   <path class="fil2" d="M293 376l0 138c0,4 8,4 14,7l36 18c2,0 0,0 2,1 1,1 1,1 2,2l25 15c8,6 18,9 27,13 3,1 8,2 11,2 5,1 8,3 11,3 4,1 9,0 13,1 19,2 49,-1 68,-3 9,-2 18,-1 27,-2 38,-5 44,-4 83,-4 7,0 31,2 36,0l3 -2c0,0 0,0 0,0 8,-6 8,-9 8,-18 0,-3 -4,-9 -6,-11l-8 -9c-7,-6 -25,-14 -35,-17 -5,-1 -10,0 -15,-2 -10,-3 -21,-2 -33,-3 -10,0 -21,-3 -31,-4 -8,0 -8,-1 -14,-3 -7,-2 -12,-2 -18,-7 -8,-6 -14,-13 -19,-21 -4,-9 -5,-13 -5,-24 0,-12 10,-28 21,-32 3,-1 7,-1 10,-3l33 -5c9,0 21,-2 29,1 7,3 13,5 20,10 6,4 19,14 27,14 2,0 11,-8 13,-10l29 -15c6,-2 11,-1 15,-6 -4,-6 -17,-13 -22,-17l-29 -20c-1,0 -1,-1 -2,-1l-41 -19c-5,-2 -6,-3 -11,-4 -6,-1 -8,-3 -13,-3 -18,-3 -38,-2 -57,0 -6,0 -32,7 -37,8 -6,0 -7,3 -12,3l-24 6c-2,1 -2,1 -5,2 -2,1 -5,1 -7,1 -7,1 -6,3 -13,4 -8,1 -16,4 -25,4 -10,1 -15,4 -27,5 -9,0 -21,4 -41,4 -5,0 -13,-2 -13,3z"/>
   <path class="fil3" d="M293 376c0,-5 8,-3 13,-3 20,0 32,-4 41,-4 12,-1 17,-4 27,-5 9,0 17,-3 25,-4 7,-1 6,-3 13,-4 2,0 5,0 7,-1 3,-1 3,-1 5,-2l24 -6c5,0 6,-3 12,-3 5,-1 31,-8 37,-8 19,-2 39,-3 57,0 5,0 7,2 13,3 5,1 6,2 11,4l41 19c1,0 1,1 2,1l29 20c5,4 18,11 22,17 -4,5 -9,4 -15,6l-29 15c-2,2 -11,10 -13,10 -8,0 -21,-10 -27,-14 -7,-5 -13,-7 -20,-10 -8,-3 -20,-1 -29,-1l-33 5c-3,2 -7,2 -10,3 -11,4 -21,20 -21,32 0,11 1,15 5,24 5,8 11,15 19,21 6,5 11,5 18,7 6,2 6,3 14,3 10,1 21,4 31,4 12,1 23,0 33,3 5,2 10,1 15,2 10,3 28,11 35,17l8 9c2,2 6,8 6,11 0,9 0,12 -8,18 0,0 0,0 0,0l-3 2c-5,2 -29,0 -36,0 -39,0 -45,-1 -83,4 -9,1 -18,0 -27,2 -19,2 -49,5 -68,3 -4,-1 -9,0 -13,-1 -3,0 -6,-2 -11,-3 -3,0 -8,-1 -11,-2 -9,-4 -19,-7 -27,-13l-25 -15c-1,-1 -1,-1 -2,-2 -2,-1 0,-1 -2,-1l-36 -18c-6,-3 -14,-3 -14,-7l0 -138zm326 86c1,0 7,-2 8,-3 2,-1 2,-2 5,-4 13,-11 11,-10 26,-18 3,-2 3,-2 7,-3 4,-1 3,-2 7,-3 3,-1 4,0 7,-1 4,-2 2,-2 6,-3l14 -5c13,-5 14,-20 6,-30l-41 -34c-2,-1 -3,-2 -5,-4 -2,-1 -3,-2 -5,-3 -2,-2 -2,-2 -5,-4l-23 -14c-3,-2 -3,-2 -6,-3 -5,-3 -10,-6 -15,-8 -2,0 -3,0 -4,-1 -3,-2 -2,-2 -6,-3 -6,-2 -7,-3 -14,-5 -6,-1 -4,-2 -15,-4 -12,-1 -1,-2 -31,-4l-35 1c-6,1 -10,3 -15,3 -4,1 -6,0 -9,1 -13,5 -12,3 -21,6 -6,3 -23,5 -30,8l-14 3c-3,1 -4,2 -7,3 -5,1 -7,1 -15,3 -5,2 -11,1 -16,3 -10,3 -13,2 -24,4 -5,0 -10,2 -15,2 -6,1 -12,0 -18,1 -11,1 -43,5 -51,2 0,3 -2,3 -2,7l0 187c0,6 7,4 12,4 9,0 14,3 21,4 6,1 6,2 12,4l64 38c3,1 1,2 5,3l30 9c5,1 9,1 13,1l22 3c11,1 11,0 21,-1l31 -2c6,-1 14,0 20,-1 7,-1 14,-3 19,-3l83 -1c20,0 20,2 38,-3 10,-3 17,-7 23,-14 5,-6 11,-18 11,-26 0,-13 -2,-18 -8,-29 -4,-9 -12,-15 -19,-21 0,0 -1,0 -1,-1l-7 -5c-6,-4 -14,-7 -21,-10 -3,-1 -3,-1 -6,-2 -10,-5 -27,-5 -37,-7 -14,-2 -29,-3 -42,-4 -8,0 -9,-1 -15,-2 -12,-2 -16,-4 -24,-12 -5,-5 -8,-13 -3,-19 3,-3 3,-2 8,-3 7,-1 9,-3 16,-4 8,-1 29,-2 36,1l14 9c9,6 30,17 40,17z"/>
   <path class="fil3" d="M157 341c0,-7 4,-14 10,-14l42 0c9,0 12,7 12,12l0 223c0,3 -1,7 -3,9 -2,2 1,0 -4,2 -6,3 -37,1 -46,1 -7,0 -11,-6 -11,-14l0 -219zm-27 213c0,6 0,19 1,22 5,11 13,22 24,25 9,3 55,2 66,0 5,0 5,-1 8,-3 8,-5 9,-4 16,-17 3,-5 3,-11 3,-18 0,-26 2,-230 -1,-240 -3,-6 -9,-14 -15,-18 -1,-1 -2,-2 -3,-2l-14 -4 -51 0c-8,0 -16,4 -22,9 -5,5 -6,8 -9,13 -1,2 -2,3 -2,7 -1,6 -1,12 -1,19l0 207z"/>
   <path class="fil2" d="M157 341l0 219c0,8 4,14 11,14 9,0 40,2 46,-1 5,-2 2,0 4,-2 2,-2 3,-6 3,-9l0 -223c0,-5 -3,-12 -12,-12l-42 0c-6,0 -10,7 -10,14z"/>
   <path class="fil3" d="M641 469c2,5 -1,4 3,6l13 6c4,3 3,3 8,3 2,0 7,-4 10,-6l5 -3c5,-3 10,-6 17,-7 14,-3 7,-6 42,-3 4,0 3,0 6,1 3,2 3,1 6,2 6,1 7,3 12,5 9,3 23,15 30,22l6 8c0,0 1,0 1,1 1,1 0,0 1,2 2,2 2,3 3,5l8 17 4 20c0,8 0,17 -2,24 -2,7 -2,15 -7,23 -4,7 -8,14 -14,21l-18 16c-2,1 -1,1 -3,2 -6,3 -11,6 -17,8 -20,7 -24,4 -46,4 -5,0 -7,-2 -12,-3 -7,-2 -13,-5 -19,-8 -8,-4 -14,-10 -20,-16 -4,-4 -3,-6 -10,-6l-23 0c-12,1 -3,7 0,13 6,8 13,15 20,21l12 9c0,1 0,1 0,1l29 14c3,1 5,1 9,2 3,1 4,1 7,2 9,2 39,2 47,-1 5,-2 11,-2 16,-4l10 -4c6,-4 13,-7 19,-11l11 -9c12,-11 21,-23 28,-37 1,-2 1,-3 2,-6 1,-2 1,-1 3,-4 0,-1 0,-4 1,-6 2,-5 2,-4 3,-11 1,-8 4,-17 4,-26 0,-14 -6,-44 -14,-56 -1,-1 -1,-1 -2,-2 -4,-8 -8,-15 -14,-22l-1 -1c0,0 0,0 0,0 -7,-7 -15,-15 -23,-20 -10,-6 -20,-11 -30,-15 -3,-1 -7,-1 -11,-3 -15,-4 -26,-2 -42,-2l-29 8c-3,1 -6,3 -9,4l-14 9c0,0 0,0 0,0 -6,4 -10,10 -16,13z"/>
   <path class="fil3" d="M730 598c0,-10 -1,-25 1,-34 2,2 3,2 5,4l4 4c3,3 3,6 2,12 0,8 0,7 -3,12 -2,2 -9,10 -9,2zm-21 -77c0,-9 -1,-9 3,-15 3,-4 2,-4 8,-4 0,10 1,21 -1,29 -6,0 -10,-4 -10,-10zm10 -48c1,7 2,6 -5,9 -5,2 -7,2 -10,5 -3,3 -12,13 -12,18 0,16 3,4 9,28 1,4 3,4 3,8 0,4 0,7 1,10 2,9 15,3 15,17 0,10 1,21 -1,29 -6,0 -4,1 -7,-3l-1 -2c-6,-9 1,-12 -14,-12 -7,13 -9,6 -5,19 1,6 5,12 10,16 1,1 2,2 5,3l2 1c2,2 1,1 3,2 10,4 8,4 7,15 4,3 2,3 7,3 6,0 4,-11 4,-17 7,-1 6,-2 12,-4 8,-4 13,-14 16,-21 3,-6 3,-29 0,-35 -3,-8 -9,-13 -16,-18l-12 -6c0,-8 -2,-31 1,-37 5,4 7,11 9,14 18,-4 18,3 15,-12 -1,-4 -1,-3 -3,-7 -3,-5 -3,-6 -9,-10 -2,-2 -5,-3 -7,-3 -12,-6 -2,-9 -9,-11 -4,-1 -5,1 -8,1z"/>
   <path class="fil2" d="M730 598c0,8 7,0 9,-2 3,-5 3,-4 3,-12 1,-6 1,-9 -2,-12l-4 -4c-2,-2 -3,-2 -5,-4 -2,9 -1,24 -1,34z"/>
   <path class="fil2" d="M709 521c0,6 4,10 10,10 2,-8 1,-19 1,-29 -6,0 -5,0 -8,4 -4,6 -3,6 -3,15z"/>
  </g>
 </g>
</svg>
