<?xml version="1.0" encoding="UTF-8"?>
<!DOCTYPE svg PUBLIC "-//W3C//DTD SVG 1.1//EN" "http://www.w3.org/Graphics/SVG/1.1/DTD/svg11.dtd">
<!-- Creator: CorelDRAW X7 -->
<svg xmlns="http://www.w3.org/2000/svg" xml:space="preserve" width="1481px" height="1472px" version="1.1" style="shape-rendering:geometricPrecision; text-rendering:geometricPrecision; image-rendering:optimizeQuality; fill-rule:evenodd; clip-rule:evenodd"
viewBox="0 0 998 992"
 xmlns:xlink="http://www.w3.org/1999/xlink">
 <defs>
  <style type="text/css">
   <![CDATA[
    .str0 {stroke:black;stroke-width:22.4657}
    .str1 {stroke:black;stroke-width:44.9313}
    .fil1 {fill:#FEFEFE}
    .fil0 {fill:black}
    .fil2 {fill:black}
   ]]>
  </style>
 </defs>
 <g id="Layer_x0020_1">
  <metadata id="CorelCorpID_0Corel-Layer"/>
  <rect class="fil0 str0" x="56" y="51" width="930" height="930" rx="181" ry="181"/>
  <rect class="fil1 str1" x="22" y="22" width="930" height="930" rx="181" ry="181"/>
  <path class="fil2" d="M115 499l5 55c2,7 2,11 3,17 1,4 1,5 2,8l4 16c2,4 1,5 2,8 1,4 2,3 3,7 1,6 0,3 2,8 2,3 2,5 3,8 1,3 2,3 3,7l15 35c2,3 2,3 4,6 2,6 12,21 15,26l8 12c1,1 1,1 2,2 1,1 1,2 2,4l23 27c3,4 7,7 10,10l31 29c4,4 8,6 11,9l25 18c2,1 -1,-1 2,1l13 7c1,1 2,1 3,2 2,1 2,1 3,1l31 16c6,3 24,9 30,10 16,3 10,-15 10,-28l0 -45c0,-3 1,-3 1,-6l-3 -3c-14,2 -45,2 -60,-4 -2,-1 -2,-1 -5,-2 -11,-3 -20,-9 -28,-17 -7,-6 -12,-14 -17,-23 -1,-1 -1,-1 -1,-2 -1,-3 1,1 0,-2 -2,-3 -2,-1 -3,-6l-4 -11c-4,-11 -12,-20 -21,-26 0,-1 -1,-1 -2,-2 -1,-1 1,0 -2,-1l-5 -4c-6,-4 -12,-8 -16,-14 1,-5 3,-7 8,-9 8,-2 19,-3 27,1l16 9c8,6 13,13 19,20l9 11c3,5 10,15 14,19 6,5 13,10 21,12 7,1 6,3 13,3 13,0 23,3 38,-2 2,-1 5,-1 8,-2l4 -13c2,-5 6,-12 9,-17l9 -12c2,-2 4,-4 5,-6 -5,-3 -9,-4 -16,-5 -6,0 -5,0 -9,-2 -3,-1 -5,-1 -9,-2l-43 -17c-1,-1 -1,0 -2,-1l-32 -22c-16,-13 -28,-29 -37,-48l-14 -39c-2,-9 -4,-30 -4,-39 0,-6 1,-9 1,-15 0,-8 5,-35 8,-42 3,-6 4,-12 7,-18l17 -27c6,-8 9,-8 3,-23 -2,-6 -1,-7 -2,-14 -3,-19 -2,-26 0,-46 1,-5 3,-8 4,-13 1,-6 3,-8 4,-13 6,0 9,-2 16,-1 6,1 10,0 16,2l14 4c2,1 2,1 6,2 3,1 3,1 6,3l35 18c13,10 14,9 29,4 5,-2 14,-2 19,-3 11,-2 9,-1 20,-2 4,0 5,-1 10,-1 22,0 44,-1 65,1l12 2c9,2 18,2 26,4 4,1 8,1 12,2 6,1 8,-1 12,-4l30 -17c8,-4 17,-8 26,-10 22,-5 14,-4 37,-4l5 8c0,3 0,3 1,5 2,7 2,10 4,17 1,5 2,6 2,12 0,10 2,25 -1,34l-4 20c0,3 8,14 10,17 1,1 1,0 2,2 1,2 1,2 2,4 1,1 1,1 2,2l11 23c1,2 1,4 2,7 2,3 2,2 3,7 0,1 0,2 0,3l4 11c1,14 5,30 3,44 -1,4 0,7 -1,10 0,6 -2,13 -3,19 -1,12 -10,37 -16,48l-4 6c-2,2 -1,1 -1,2l-3 4c0,0 0,0 -1,1l-31 33c-1,1 -1,1 -1,2 -1,0 -1,0 -1,0l-10 8c-3,2 -4,2 -7,4 -7,5 -14,7 -21,11 -4,2 -4,2 -7,3l-8 3c-4,2 -4,3 -8,4 -4,1 -4,0 -8,2 -4,1 -6,1 -9,2 -4,1 -4,2 -8,3 -4,1 -10,1 -14,3 -3,2 -4,2 -1,5 1,2 2,3 3,4l20 37c1,2 1,3 1,6 3,11 4,19 4,32l0 84c0,8 -1,12 5,16 6,5 10,1 20,-2l45 -21c0,0 1,0 1,0 0,0 0,-1 0,-1l29 -17c16,-9 41,-30 53,-43 6,-6 13,-12 19,-19l25 -31c1,-1 1,-1 2,-2 1,-2 1,-2 2,-3 1,-1 1,-2 2,-3 6,-8 11,-18 16,-27l27 -58c1,-5 2,-3 3,-7 1,-5 0,-4 2,-7 2,-5 1,-3 2,-8 1,-6 3,-8 4,-15 1,-6 3,-10 4,-16l7 -69c0,-10 -3,-54 -6,-63 -2,-6 -1,-13 -4,-19 -1,-5 -1,-10 -3,-14 -1,-3 0,-1 -1,-4 -2,-4 -1,-6 -3,-10 -2,-5 -7,-23 -10,-30 -1,-2 -1,-2 -2,-4 -1,-2 -1,-3 -2,-4 -2,-7 -15,-32 -19,-39 -1,-2 -2,-2 -3,-4l-4 -7c-10,-17 -22,-32 -35,-47 -8,-10 -18,-21 -28,-30l-13 -11c-1,-1 -2,-1 -3,-2 0,0 0,0 0,-1l-87 -53c-3,-2 1,0 -3,-2l-22 -8c-2,0 -2,-1 -4,-2 -3,-1 -6,-1 -9,-2l-18 -6c-4,-1 -6,-1 -10,-2l-19 -3c-8,-2 -12,-4 -20,-4 -7,0 -15,-2 -21,-2 -4,-1 -8,0 -12,0 -10,-1 -22,-1 -33,0 -6,0 -14,2 -20,2 -11,1 -12,1 -21,3 -3,1 -8,1 -11,2 -4,0 -5,1 -9,2 -3,1 -6,1 -9,2 -4,0 -5,2 -9,3l-9 2c-3,2 -6,2 -9,3l-26 10c0,0 -2,1 -2,1 -2,1 -1,0 -2,0l-27 14c-7,3 -12,7 -18,11l-25 16c-14,9 -46,38 -55,50l-43 56c-3,6 -8,13 -11,19l-18 40c-1,4 -2,4 -3,8l-4 9c-1,3 0,5 -2,9 -2,3 -9,31 -10,37 -1,3 -1,6 -1,10 -3,12 -2,9 -3,21 -1,6 -3,14 -3,21 0,8 -1,14 -1,22z"/>
 </g>
</svg>
