<?xml version="1.0" encoding="UTF-8"?>
<!DOCTYPE svg PUBLIC "-//W3C//DTD SVG 1.1//EN" "http://www.w3.org/Graphics/SVG/1.1/DTD/svg11.dtd">
<!-- Creator: CorelDRAW X7 -->
<svg xmlns="http://www.w3.org/2000/svg" xml:space="preserve" width="30px" height="30px" version="1.1" style="shape-rendering:geometricPrecision; text-rendering:geometricPrecision; image-rendering:optimizeQuality; fill-rule:evenodd; clip-rule:evenodd"
viewBox="0 0 30 30"
 xmlns:xlink="http://www.w3.org/1999/xlink">
 <defs>
  <style type="text/css">
   <![CDATA[
    .str0 {stroke:#373435;stroke-width:0.886596}
    .fil0 {fill:#FEFEFE}
    .fil1 {fill:#373435;fill-rule:nonzero}
   ]]>
  </style>
 </defs>
 <g id="Layer_x0020_1">
  <metadata id="CorelCorpID_0Corel-Layer"/>
  <rect class="fil0 str0" width="29.1134" height="29.1134" rx="6" ry="6"/>
  <g>
   <path class="fil1" d="M23 16l-19 0 0 -1 19 0 0 1 0 0zm0 -1c0,0 0,1 0,1 0,0 0,0 0,0l0 -1zm3 9l-4 -8 1 0 4 8 -1 0 0 0zm1 0c0,0 0,0 0,0 -1,0 -1,0 -1,0l1 0zm-20 -1l19 0 0 1 -19 0 0 0 0 -1zm0 1c0,0 0,0 0,0 0,0 0,-1 0,-1l0 1zm-3 -8l4 8 -1 0 -4 -8 1 -1 0 1zm-1 0c0,0 0,-1 0,-1 1,0 1,0 1,1l-1 0z"/>
  </g>
  <g>
   <path class="fil1" d="M14 3l3 -1 0 1 -3 1 -1 -1 1 0zm0 1c-1,0 -1,0 -1,-1 0,0 0,0 1,0l0 1zm-1 9l0 -10 1 0 0 10 0 1 -1 -1zm1 0c0,0 0,1 0,1 -1,0 -1,-1 -1,-1l1 0zm-4 -1l4 0 0 2 -4 0 -1 -1 1 -1zm0 2c0,0 -1,-1 -1,-1 0,0 1,-1 1,-1l0 2zm5 5l-6 -6 1 0 6 5 0 1 -1 0zm1 -1c0,1 0,1 0,1 -1,1 -1,1 -1,0l1 -1zm5 -4l-5 5 -1 0 5 -6 0 0 1 1zm-1 -1c0,0 0,0 1,0 0,0 0,0 0,1l-1 -1zm-3 0l3 0 0 1 -3 0 -1 -1 1 0zm0 1c0,0 -1,0 -1,-1 0,0 1,0 1,0l0 1zm1 -11l0 10 -2 0 0 -10 1 -1 1 1zm-2 0c0,-1 1,-1 1,-1 0,0 1,0 1,1l-2 0z"/>
   <polygon id="1" class="fil0" points="17,3 14,3 14,13 10,13 15,19 20,13 17,13 "/>
  </g>
 </g>
</svg>
