<?xml version="1.0" encoding="UTF-8"?>
<!DOCTYPE svg PUBLIC "-//W3C//DTD SVG 1.1//EN" "http://www.w3.org/Graphics/SVG/1.1/DTD/svg11.dtd">
<!-- Creator: CorelDRAW X7 -->
<svg xmlns="http://www.w3.org/2000/svg" xml:space="preserve" width="300px" height="300px" version="1.1" style="shape-rendering:geometricPrecision; text-rendering:geometricPrecision; image-rendering:optimizeQuality; fill-rule:evenodd; clip-rule:evenodd"
viewBox="0 0 300 300"
 xmlns:xlink="http://www.w3.org/1999/xlink">
 <defs>
  <style type="text/css">
   <![CDATA[
    .str0 {stroke:black;stroke-width:2.08348}
    .str1 {stroke:#FEFEFE;stroke-width:8.33392}
    .fil1 {fill:none;fill-rule:nonzero}
    .fil0 {fill:black}
    .fil2 {fill:#FEFEFE;fill-rule:nonzero}
   ]]>
  </style>
 </defs>
 <g id="Layer_x0020_1">
  <metadata id="CorelCorpID_0Corel-Layer"/>
  <rect class="fil0 str0" x="10" y="10" width="280" height="280" rx="140" ry="140"/>
  <g>
   <path class="fil1 str1" d="M172 36c4,0 8,2 12,5 3,4 5,8 5,13 0,4 -2,8 -5,12 -4,3 -8,5 -12,5 -5,0 -9,-2 -12,-5 -4,-4 -6,-8 -6,-12 0,-5 2,-9 5,-13 4,-3 8,-5 13,-5zm7 68l-36 122c-2,8 -3,13 -3,14 0,2 0,3 1,4 1,2 2,2 3,2 2,0 4,-1 6,-3 6,-5 12,-12 18,-21l6 4c-8,11 -16,21 -26,29 -8,6 -15,9 -22,9 -4,0 -8,-2 -10,-5 -3,-2 -5,-6 -5,-10 0,-4 2,-11 5,-21l24 -77c3,-13 5,-21 5,-24 0,-2 -1,-4 -2,-6 -2,-2 -5,-2 -8,-2 -2,0 -7,0 -15,1l0 -6 59 -10z"/>
  </g>
  <path id="1" class="fil2" d="M172 36c4,0 8,2 12,5 3,4 5,8 5,13 0,4 -2,8 -5,12 -4,3 -8,5 -12,5 -5,0 -9,-2 -12,-5 -4,-4 -6,-8 -6,-12 0,-5 2,-9 5,-13 4,-3 8,-5 13,-5zm7 68l-36 122c-2,8 -3,13 -3,14 0,2 0,3 1,4 1,2 2,2 3,2 2,0 4,-1 6,-3 6,-5 12,-12 18,-21l6 4c-8,11 -16,21 -26,29 -8,6 -15,9 -22,9 -4,0 -8,-2 -10,-5 -3,-2 -5,-6 -5,-10 0,-4 2,-11 5,-21l24 -77c3,-13 5,-21 5,-24 0,-2 -1,-4 -2,-6 -2,-2 -5,-2 -8,-2 -2,0 -7,0 -15,1l0 -6 59 -10z"/>
 </g>
</svg>
