<?xml version="1.0" encoding="UTF-8"?>
<!DOCTYPE svg PUBLIC "-//W3C//DTD SVG 1.1//EN" "http://www.w3.org/Graphics/SVG/1.1/DTD/svg11.dtd">
<!-- Creator: CorelDRAW X7 -->
<svg xmlns="http://www.w3.org/2000/svg" xml:space="preserve" width="230px" height="60px" version="1.1" style="shape-rendering:geometricPrecision; text-rendering:geometricPrecision; image-rendering:optimizeQuality; fill-rule:evenodd; clip-rule:evenodd"
viewBox="0 0 230 60"
 xmlns:xlink="http://www.w3.org/1999/xlink">
 <defs>
  <style type="text/css">
   <![CDATA[
    .str0 {stroke:#00A544;stroke-width:2.08348}
    .str1 {stroke:#FEFEFE;stroke-width:1.25434;stroke-linecap:round;stroke-linejoin:round}
    .fil5 {fill:none}
    .fil6 {fill:#FEFEFE}
    .fil4 {fill:#00A544}
    .fil3 {fill:#00A544}
    .fil0 {fill:#00A544;fill-rule:nonzero}
    .fil2 {fill:#999999;fill-rule:nonzero}
    .fil1 {fill:#999999;fill-rule:nonzero}
   ]]>
  </style>
 </defs>
 <g id="Layer_x0020_1">
  <metadata id="CorelCorpID_0Corel-Layer"/>
  <path class="fil0" d="M90 46l0 -31 12 0c3,0 6,1 9,2 2,1 4,3 5,6 2,2 2,5 2,8 0,2 0,4 -1,6 -1,2 -2,3 -3,5 -1,1 -3,2 -5,3 -2,1 -4,1 -7,1l-12 0zm6 -26l0 21 6 0c3,0 6,-1 8,-3 1,-2 2,-4 2,-7 0,-3 -1,-6 -2,-8 -2,-2 -5,-3 -8,-3l-6 0z"/>
  <path id="1" class="fil0" d="M123 25l5 0 0 3c1,-1 1,-2 2,-3 1,0 2,0 3,0 2,0 4,0 5,1 1,1 2,3 2,5 0,1 -1,2 -1,2l-5 0c0,0 0,-1 0,-1 0,-1 0,-2 -1,-2 0,-1 -1,-1 -2,-1 -1,0 -1,1 -2,1 0,1 -1,2 -1,3l0 13 -5 0 0 -21z"/>
  <path id="2" class="fil0" d="M142 36c0,-4 1,-6 3,-8 2,-2 5,-3 8,-3 3,0 6,1 8,3 2,2 3,4 3,8 0,3 -1,5 -3,7 -2,3 -5,4 -8,4 -3,0 -6,-1 -8,-4 -2,-2 -3,-4 -3,-7zm17 0c0,-2 -1,-4 -2,-5 -1,-1 -2,-1 -4,-1 -1,0 -3,0 -4,1 -1,1 -1,3 -1,5 0,1 0,3 1,4 1,1 3,1 4,1 2,0 3,0 4,-1 1,-1 2,-3 2,-4z"/>
  <path id="3" class="fil0" d="M169 25l5 0 0 3c1,-1 2,-2 3,-2 1,-1 3,-1 4,-1 3,0 5,1 7,3 2,2 3,4 3,8 0,3 -1,6 -3,8 -2,2 -4,3 -7,3 -2,0 -3,-1 -4,-1 -1,-1 -2,-2 -3,-3l0 12 -5 0 0 -30zm11 17c1,0 3,-1 4,-2 1,-1 1,-2 1,-4 0,-2 0,-4 -1,-5 -1,-1 -3,-1 -4,-1 -2,0 -3,0 -4,1 -1,1 -2,3 -2,5 0,2 1,3 2,4 1,1 2,2 4,2z"/>
  <polygon id="4" class="fil1" points="195,46 195,15 201,15 201,46 "/>
  <path id="5" class="fil1" d="M210 39l0 -9 -5 0 0 -5 5 0 0 -7 5 0 0 7 8 0 0 5 -8 0 0 9c0,1 1,1 1,2 0,0 1,1 2,1 1,0 2,-1 2,-3l5 1c0,2 -1,4 -2,5 -1,1 -3,2 -5,2 -3,0 -5,-1 -6,-2 -2,-2 -2,-4 -2,-6z"/>
  <g>
   <path class="fil2" d="M64 23l-59 0 0 -2 59 0 1 1 -1 1zm0 -2c1,0 2,0 2,1 0,1 -1,1 -2,1l0 -2zm11 27l-12 -25 2 -1 12 25 -1 2 -1 -1zm2 -1c1,1 0,1 0,2 -1,0 -1,0 -2,-1l2 -1zm-61 -1l60 0 0 3 -60 0 -1 -1 1 -2zm0 3c0,0 -1,-1 -1,-2 0,0 1,-1 1,-1l0 3zm-10 -27l12 25 -3 1 -11 -25 1 -2 1 1zm-2 1c-1,-1 -1,-2 0,-2 1,0 1,0 2,1l-2 1z"/>
  </g>
  <g>
   <path class="fil0" d="M36 5l8 -1 0 2 -7 1 -2 -1 1 -1zm1 2c-1,1 -2,0 -2,0 0,-1 1,-2 1,-2l1 2zm-2 21l0 -22 3 0 0 22 -2 1 -1 -1zm3 0c0,1 -1,1 -2,1 0,0 -1,0 -1,-1l3 0zm-10 -1l8 0 0 2 -8 0 -1 0 1 -2zm0 2c-1,0 -1,0 -1,-1 0,-1 0,-1 1,-1l0 2zm11 13l-12 -13 2 -2 12 13 0 2 -2 0zm2 -2c0,1 0,2 0,2 0,1 -1,1 -2,0l2 -2zm11 -11l-11 13 -2 -1 11 -13 1 -1 1 2zm-2 -1c1,-1 1,-1 2,0 0,0 0,1 0,1l-2 -1zm-6 -1l7 0 0 3 -7 0 -1 -1 1 -2zm0 3c-1,0 -1,-1 -1,-1 0,-1 0,-2 1,-2l0 3zm1 -25l0 24 -2 0 0 -24 1 -1 1 1zm-2 0c0,-1 0,-1 1,-1 1,0 1,0 1,1l-2 0z"/>
   <polygon id="1" class="fil3" points="44,5 36,6 36,28 28,28 40,41 51,29 44,29 "/>
  </g>
  <g>
   <circle class="fil4 str0" cx="289" cy="39" r="10"/>
   <g>
    <polygon class="fil5 str1" points="283,37 287,37 287,33 290,33 290,37 294,37 294,40 290,40 290,44 287,44 287,40 283,40 "/>
    <polygon id="1" class="fil6" points="283,37 287,37 287,33 290,33 290,37 294,37 294,40 290,40 290,44 287,44 287,40 283,40 "/>
   </g>
  </g>
 </g>
</svg>
