<?xml version="1.0" encoding="UTF-8"?>
<!DOCTYPE svg PUBLIC "-//W3C//DTD SVG 1.1//EN" "http://www.w3.org/Graphics/SVG/1.1/DTD/svg11.dtd">
<!-- Creator: CorelDRAW X7 -->
<svg xmlns="http://www.w3.org/2000/svg" xml:space="preserve" width="1481px" height="1472px" version="1.1" style="shape-rendering:geometricPrecision; text-rendering:geometricPrecision; image-rendering:optimizeQuality; fill-rule:evenodd; clip-rule:evenodd"
viewBox="0 0 201 200"
 xmlns:xlink="http://www.w3.org/1999/xlink">
 <defs>
  <style type="text/css">
   <![CDATA[
    .str0 {stroke:black;stroke-width:4.51703}
    .str1 {stroke:black;stroke-width:9.03407}
    .fil1 {fill:#FEFEFE}
    .fil0 {fill:black}
    .fil2 {fill:black}
    .fil3 {fill:white}
   ]]>
  </style>
 </defs>
 <g id="Layer_x0020_1">
  <metadata id="CorelCorpID_0Corel-Layer"/>
  <rect class="fil0 str0" x="11" y="10" width="187" height="187" rx="36" ry="36"/>
  <rect class="fil1 str1" x="5" y="5" width="187" height="187" rx="36" ry="36"/>
  <g id="_1536928144">
   <path class="fil2" d="M99 114c0,-3 1,-6 2,-8 0,0 0,0 0,-1 0,0 1,0 1,0l3 -3c0,-1 1,-1 1,-1 0,0 0,0 1,0 1,-1 0,-1 2,-1 1,-1 1,-1 4,-1 3,0 3,1 5,1 1,0 0,0 1,0 1,1 1,1 1,1 2,1 4,2 5,4 1,2 2,3 2,5 1,4 1,5 -1,9l-1 2c-1,1 -2,3 -3,4 -3,2 -1,1 -5,2 -1,1 -3,1 -5,1 -2,0 -5,-2 -7,-3l-2 -2 -2 -3c-1,-2 -2,-4 -2,-6zm14 -21c-1,0 -3,0 -4,1 -1,0 -2,0 -2,0 -1,1 -2,1 -4,2 -3,2 -6,5 -8,9 0,0 -1,1 -1,1 -1,4 -1,7 -1,11 1,3 2,5 3,7l2 2c0,1 0,0 0,1 1,1 2,2 3,2 1,1 2,2 3,2 2,1 3,2 5,2 1,0 2,1 2,1 2,0 4,0 5,-1 4,0 4,0 7,-2 1,0 1,-1 2,-1 1,1 1,1 1,1l3 4c1,0 1,0 1,0l5 5c0,0 0,1 1,1l3 3c0,0 0,0 0,0l1 1c1,1 2,2 3,2 1,0 4,-3 4,-4 0,-1 -1,-2 -2,-3l-2 -2c0,0 0,0 0,0l-3 -3c-3,-2 -6,-6 -8,-8l-2 -1c0,-1 0,0 0,-1 0,-1 0,-1 1,-2l2 -3c0,-1 0,-1 0,-2 0,-2 1,-3 1,-5 0,-1 -1,-5 -2,-6l-2 -5c-2,-3 -5,-5 -9,-7 -2,-1 -5,-2 -8,-2z"/>
   <path class="fil2" d="M68 97c0,-1 0,-2 1,-3 1,-1 6,-1 8,-1 1,0 1,2 1,3 0,7 0,7 2,7 4,0 3,-1 3,4 0,1 -2,1 -4,1 -1,0 -1,-2 -1,-5 -5,0 -5,0 -5,-2 0,-1 1,-2 0,-3 -1,0 -5,1 -5,-1zm-14 -9c1,0 6,0 8,0 1,0 2,0 2,1l0 8c0,2 -4,1 -5,1 -1,-3 0,-3 -1,-5 -5,0 -4,1 -4,-5zm34 -4c-1,0 -4,-1 -4,0 -1,0 0,1 -1,4l-4 0c-2,0 0,-3 -1,-4 0,-1 -4,0 -4,0 -1,1 1,4 -2,4 -2,0 -4,1 -4,-1 0,-5 2,-3 -5,-3 -10,0 -9,-1 -9,2 0,1 0,2 -1,2 -1,0 -4,0 -4,1l0 3c0,2 5,0 5,2l0 3c0,2 -5,0 -5,2 0,4 -1,4 3,4 3,0 8,0 11,0 1,1 1,1 1,1 0,5 0,4 -5,4 -2,0 -5,-1 -5,0 0,3 -1,5 1,5l13 0c1,0 0,-2 0,-2 0,-1 0,-2 0,-3 0,-2 0,-5 2,-5 4,0 3,-1 3,5 1,0 5,0 5,0 1,1 0,4 0,4 1,1 4,1 5,1 0,1 0,2 0,3 0,1 0,2 1,2 5,0 4,1 4,-4 0,-1 0,-1 0,-1 -1,0 -1,0 -2,0 -3,0 -3,1 -3,-5 0,-1 5,1 5,-1l0 -3c0,-2 -5,0 -5,-2l0 -3c0,-2 5,0 5,-2 0,-4 0,-4 -2,-4 -1,0 -1,0 -2,0 -1,-1 -1,0 -1,-2 0,-1 0,-2 0,-3 1,0 1,0 3,0 0,0 1,0 2,0 0,0 0,-4 0,-4l0 0z"/>
   <path class="fil3" d="M99 114c0,2 1,4 2,6l2 3 2 2c2,1 5,3 7,3 2,0 4,0 5,-1 4,-1 2,0 5,-2 1,-1 2,-3 3,-4l1 -2c2,-4 2,-5 1,-9 0,-2 -1,-3 -2,-5 -1,-2 -3,-3 -5,-4 0,0 0,0 -1,-1 -1,0 0,0 -1,0 -2,0 -2,-1 -5,-1 -3,0 -3,0 -4,1 -2,0 -1,0 -2,1 -1,0 -1,0 -1,0 0,0 -1,0 -1,1l-3 3c0,0 -1,0 -1,0 0,1 0,1 0,1 -1,2 -2,5 -2,8z"/>
   <path class="fil2" d="M54 124c0,-1 0,-2 1,-2l17 0c1,0 1,1 1,2l0 17c0,1 0,1 -1,1l-17 0c-1,0 -1,0 -1,-1l0 -17zm-5 21c0,3 1,2 3,2l24 0c1,0 2,1 2,-1l0 -28c0,-1 -1,0 -1,0l-26 0c-1,0 -2,-1 -2,0l0 27z"/>
   <path class="fil2" d="M122 55c0,-1 1,-1 2,-1l16 0c1,0 2,0 2,1l0 17c0,1 -1,2 -1,2l-18 0c0,0 -1,-1 -1,-2l0 -17zm-5 -5l0 28c0,1 2,0 3,0l27 0c0,-2 0,-24 0,-28 0,-1 -2,-1 -3,-1l-26 0c0,1 -1,1 -1,1z"/>
   <path class="fil2" d="M54 55c0,0 0,-1 1,-1l16 0c1,0 2,0 2,1l0 17c0,1 0,2 -1,2l-17 0c-1,0 -1,-1 -1,-2l0 -17zm-5 -6c0,1 0,1 0,2l0 27c0,1 1,0 2,0l25 0c1,0 2,1 2,0l0 -28c0,-1 -1,-1 -2,-1l-27 0z"/>
   <path class="fil2" d="M30 51l0 16c0,1 0,1 0,1 1,1 2,1 4,1 3,0 2,-1 2,-7 0,-3 0,-14 0,-16 1,-2 2,-4 3,-5l2 -1c3,-3 6,-4 10,-4 6,0 11,0 17,0 1,-1 0,-4 0,-5 0,-1 0,-1 0,-1 -4,0 -20,0 -23,0 -2,1 -2,1 -4,2l-1 1c-2,1 -4,2 -5,4 0,0 0,0 -1,0 -1,1 -1,2 -2,3 -1,2 0,1 -1,2 0,1 0,1 0,2 -1,3 -1,2 -1,7z"/>
   <path class="fil2" d="M30 145c0,5 1,9 3,12l2 2c1,2 1,1 2,2 1,2 5,4 6,4l2 1c2,1 19,0 23,0 1,0 0,-2 0,-5 0,0 0,0 0,-1 -4,0 -17,0 -21,0 -2,-1 -1,-1 -3,-1 -1,-1 -2,-2 -3,-2l-2 -2c-1,-1 -2,-3 -2,-4 0,0 0,0 -1,-1 0,-2 0,-17 0,-20 0,-2 0,-2 -2,-2 -3,0 -4,-1 -4,1l0 16z"/>
   <path class="fil2" d="M147 166c3,0 3,0 5,-1 3,0 7,-3 8,-5 1,-1 1,-1 2,-2l3 -3c0,-1 0,-2 0,-2 1,-2 1,-2 1,-4 1,-3 0,-17 0,-21 0,0 -1,0 -2,0 -5,0 -4,-1 -4,3 0,1 0,3 0,4 0,6 1,12 -1,17 -1,1 -1,1 -1,1 -1,1 -1,2 -2,3 -2,2 -5,4 -8,4 -5,0 -14,0 -20,0 0,0 0,1 0,1 0,4 -1,5 1,5l18 0z"/>
   <path class="fil2" d="M128 31c0,3 -1,4 0,5 4,0 19,0 22,1 2,0 5,2 6,4 1,0 1,0 1,1 3,3 3,6 3,11l0 12c0,4 -1,4 4,4 1,0 2,0 2,-1l0 -18c0,-1 0,-5 -1,-6 0,-2 0,-1 -1,-3l-1 -2c0,0 0,0 0,0l-3 -3c0,0 0,0 0,0 -1,-2 -2,-2 -4,-3 -2,-1 -3,-2 -5,-3 -3,0 -17,0 -21,0 -1,0 -2,0 -2,1z"/>
   <path class="fil3" d="M59 128c0,-1 1,-1 1,-1 9,0 8,0 8,2l0 8c-1,1 -7,0 -9,0 0,0 0,0 0,0l0 -9zm-5 -4l0 17c0,1 0,1 1,1l17 0c1,0 1,0 1,-1l0 -17c0,-1 0,-2 -1,-2l-17 0c-1,0 -1,1 -1,2z"/>
   <path class="fil3" d="M59 60c0,-1 0,-1 1,-1l8 0c1,0 0,5 0,8 0,2 1,2 -8,2 0,0 -1,0 -1,-1l0 -8zm-5 -5l0 17c0,1 0,2 1,2l17 0c1,0 1,-1 1,-2l0 -17c0,-1 -1,-1 -2,-1l-16 0c-1,0 -1,1 -1,1z"/>
   <path class="fil3" d="M127 59c1,0 8,0 9,0 1,0 1,0 1,1l0 8c0,0 0,1 -1,1 -9,0 -9,1 -9,-2l0 -8zm-5 -4l0 17c0,1 1,2 1,2l18 0c0,0 1,-1 1,-2l0 -17c0,-1 -1,-1 -2,-1l-16 0c-1,0 -2,0 -2,1z"/>
   <path class="fil2" d="M88 64c0,-3 0,-5 0,-8 0,-2 0,-2 2,-2 2,0 1,0 3,0 0,3 0,5 0,8 0,2 2,2 -5,2zm0 0c0,1 0,3 0,4 -1,1 -3,0 -5,1 0,0 0,2 0,3 0,1 0,1 1,2 1,0 3,0 5,0 5,0 4,0 4,-5 0,-6 -1,-5 5,-5 5,0 5,1 5,-3 0,0 0,-2 -1,-2 0,-1 -3,0 -4,0 -1,-1 1,-9 0,-10 -1,0 -8,0 -10,0 0,1 0,4 0,5 0,0 -1,0 -2,0 -1,0 -2,0 -2,0 -1,1 -1,1 -1,2l0 6c0,1 0,1 1,2l4 0z"/>
   <path class="fil2" d="M108 69c3,0 2,0 5,-1 0,-3 0,-4 -1,-4l-9 0c0,2 0,2 0,4l-5 1c0,0 0,1 0,1 0,1 0,0 0,1 0,1 0,1 0,2 0,1 2,1 3,1 1,0 1,0 1,0 1,1 1,3 1,4 -2,0 -4,0 -5,1 0,1 0,2 0,3 0,2 1,1 1,1l4 0c0,-1 0,-3 0,-4 1,0 5,-1 5,0 0,3 0,3 -1,5l-4 0c0,0 0,0 0,0 0,1 0,0 0,1 0,1 -1,3 0,3l14 0c0,0 0,0 0,0 0,-2 1,-3 0,-4 -4,0 -4,0 -4,-3 0,-3 0,-3 -5,-3 -1,-1 0,-6 0,-8 0,-1 0,-1 0,-1z"/>
   <path class="fil2" d="M127 59l0 8c0,3 0,2 9,2 1,0 1,-1 1,-1l0 -8c0,-1 0,-1 -1,-1 -1,0 -8,0 -9,0z"/>
   <path class="fil2" d="M59 60l0 8c0,1 1,1 1,1 9,0 8,0 8,-2 0,-3 1,-8 0,-8l-8 0c-1,0 -1,0 -1,1z"/>
   <path class="fil2" d="M59 128l0 9c0,0 0,0 0,0 2,0 8,1 9,0l0 -8c0,-2 1,-2 -8,-2 0,0 -1,0 -1,1z"/>
   <path class="fil3" d="M73 98c1,1 0,2 0,3 0,2 0,2 5,2 0,3 0,5 1,5 2,0 4,0 4,-1 0,-5 1,-4 -3,-4 -2,0 -2,0 -2,-7 0,-1 0,-3 -1,-3 -2,0 -7,0 -8,1 -1,1 -1,2 -1,3 0,2 4,1 5,1z"/>
   <path class="fil3" d="M54 88c0,6 -1,5 4,5 1,2 0,2 1,5 1,0 5,1 5,-1l0 -8c0,-1 -1,-1 -2,-1 -2,0 -7,0 -8,0z"/>
   <path class="fil3" d="M88 64c7,0 5,0 5,-2 0,-3 0,-5 0,-8 -2,0 -1,0 -3,0 -2,0 -2,0 -2,2 0,3 0,5 0,8z"/>
   <path class="fil2" d="M108 49c-1,2 0,6 0,9 0,0 -1,1 0,1 1,0 2,0 3,0 1,0 1,0 2,0l0 -9c-2,-1 -2,-1 -5,-1z"/>
   <path class="fil2" d="M88 83c1,1 0,0 1,0 4,0 4,2 4,-3 0,-1 0,-2 -1,-2 -5,0 -4,0 -4,5z"/>
   <path class="fil2" d="M83 137c1,0 1,0 1,0 3,0 4,1 4,0 0,-6 1,-5 -4,-5 -1,0 -1,4 -1,5z"/>
   <path class="fil2" d="M83 126c0,1 0,1 0,1 1,0 1,1 1,1 3,0 4,0 4,-1 0,-6 0,-4 -1,-4l-3 -1c0,0 -1,1 -1,2 0,0 0,1 0,2 0,1 0,-1 0,0z"/>
   <path class="fil2" d="M93 87c0,2 1,1 2,1 3,0 3,2 3,-4l-5 0c0,1 0,2 0,3z"/>
   <path class="fil2" d="M132 87c0,2 2,1 3,1 1,0 2,1 2,0 0,-2 0,-3 0,-4 -6,0 -5,-1 -5,3z"/>
   <path class="fil2" d="M122 87c0,2 2,1 3,1 0,0 2,1 2,0 0,-2 0,-3 0,-4 -1,0 -3,-1 -4,0 -1,1 -1,2 -1,3z"/>
  </g>
 </g>
</svg>
