<?xml version="1.0" encoding="UTF-8"?>
<!DOCTYPE svg PUBLIC "-//W3C//DTD SVG 1.1//EN" "http://www.w3.org/Graphics/SVG/1.1/DTD/svg11.dtd">
<!-- Creator: CorelDRAW X7 -->
<svg xmlns="http://www.w3.org/2000/svg" xml:space="preserve" width="1481px" height="1472px" version="1.1" style="shape-rendering:geometricPrecision; text-rendering:geometricPrecision; image-rendering:optimizeQuality; fill-rule:evenodd; clip-rule:evenodd"
viewBox="0 0 1223 1217"
 xmlns:xlink="http://www.w3.org/1999/xlink">
 <defs>
  <style type="text/css">
   <![CDATA[
    .str0 {stroke:black;stroke-width:27.5454}
    .str1 {stroke:black;stroke-width:55.0907}
    .str2 {stroke:black;stroke-width:13.7727;stroke-linecap:round;stroke-linejoin:round}
    .fil3 {fill:none}
    .fil1 {fill:#FEFEFE}
    .fil0 {fill:black}
    .fil4 {fill:black}
    .fil2 {fill:white}
   ]]>
  </style>
 </defs>
 <g id="Layer_x0020_1">
  <metadata id="CorelCorpID_0Corel-Layer"/>
  <rect class="fil0 str0" x="69" y="62" width="1141" height="1141" rx="222" ry="222"/>
  <rect class="fil1 str1" x="28" y="28" width="1141" height="1141" rx="222" ry="222"/>
  <path class="fil2" d="M1061 406l0 -226 -275 0c-1,6 -3,8 -5,13 -2,5 -2,8 -5,13 -5,10 -3,12 5,26l29 43c3,4 5,6 7,10 3,4 5,7 8,10 2,4 5,7 8,10 0,0 0,0 1,0 0,1 0,1 0,1l16 19c14,15 31,29 47,43l46 34c4,3 2,1 6,3l23 14c6,4 6,3 12,1l52 -21c18,-7 17,5 25,7z"/>
  <path class="fil2" d="M788 1016l273 0 0 -226c-10,1 -2,4 -12,7 -8,2 -20,-5 -26,-7l-20 -8c-3,-1 -3,-2 -6,-3 -15,-5 -17,-9 -26,-2l-52 37c-15,12 -35,30 -49,42l-19 22c-1,0 -1,0 -1,0l-5 6c-2,2 -1,1 -3,3l-11 12c-1,2 -2,3 -4,4 -2,3 -2,3 -4,6 -1,1 -2,2 -4,4l-44 64c-1,5 2,9 3,14 1,3 2,4 3,7l5 12c3,5 2,-2 2,6z"/>
  <path class="fil2" d="M1061 775l0 -358c-9,2 1,5 -20,13l-47 21c-5,3 -5,4 -6,10 -3,20 -4,11 -6,28 -1,4 -2,8 -3,13l-8 60 0 66c0,14 5,47 7,61 1,6 11,50 14,53 7,7 32,14 35,15l23 11c6,3 5,5 11,7z"/>
  <path class="fil2" d="M135 779c9,-2 -1,-5 20,-13 5,-2 43,-17 47,-21 5,-6 5,-16 7,-26 1,-6 3,-7 4,-12 3,-13 11,-61 12,-74 0,-12 0,-23 1,-33 1,-7 -4,-56 -4,-62 -2,-16 -6,-41 -12,-56 -5,-15 0,-25 -16,-34 -4,-2 -9,-3 -13,-5 -5,-3 -7,-2 -12,-4l-18 -8c-15,-7 -9,-8 -16,-10l0 358z"/>
  <path class="fil2" d="M249 765l65 46c9,9 7,5 13,10l48 43c0,1 0,1 1,1 0,0 0,1 0,1l57 64c2,3 7,14 12,-1l20 -48c1,-3 2,-7 3,-10 6,-16 9,-7 -10,-29 0,0 0,-1 0,-1l-10 -11c-1,0 -1,-1 -2,-2 -2,-2 -3,-2 -5,-4l-17 -17c-22,-21 -28,-28 -55,-49 -4,-4 -37,-29 -40,-29 -9,0 -19,7 -28,10l-35 15c-4,2 -1,1 -5,2 -5,2 -10,1 -12,9z"/>
  <path class="fil2" d="M554 325l81 0c13,0 27,-3 40,-4 12,-1 20,3 24,-9l19 -47c3,-4 2,-4 4,-8 2,-9 4,-7 4,-19 -6,1 -6,3 -13,4l-136 10c-11,0 -18,-2 -27,-3l-55 -6c-4,0 -10,0 -14,-1 -5,-1 -7,-3 -12,-4 0,15 0,9 6,25l23 53c4,7 19,4 37,7 5,0 11,2 19,2z"/>
  <path class="fil2" d="M727 867l28 67c2,6 1,9 8,9 5,0 5,-8 14,-19l15 -20c28,-37 38,-44 69,-76 13,-14 11,-10 21,-18l41 -33c9,-8 17,-10 23,-18l-78 -32c-3,0 -5,1 -8,2l-40 34c-2,2 -1,1 -2,3l-75 78c-1,1 -2,2 -3,3 -1,2 -1,2 -3,4 -3,3 -10,10 -10,16z"/>
  <path class="fil2" d="M504 871c-2,3 -3,5 -5,9l-14 36c-2,4 0,1 -2,4 -2,4 -3,7 -5,11l-6 14c-2,8 1,-1 1,6l62 -5c11,-2 23,-1 33,-2 14,-2 86,3 101,5 5,1 11,1 15,2l31 4c6,2 7,4 14,3 -1,-14 -18,-46 -24,-62 -11,-33 -13,-16 -50,-23 -16,-4 -106,-3 -128,-3 -10,0 -14,1 -23,1z"/>
  <path class="fil2" d="M871 591c0,32 4,65 4,88 0,21 8,19 15,22l31 13c6,3 29,13 34,13 7,0 3,-6 1,-10 -3,-6 -2,-8 -3,-16l-5 -33c-1,-5 -1,-10 -1,-17 0,-5 -2,-11 -3,-16 -2,-19 -1,-51 0,-70 1,-4 2,-12 3,-15 0,-6 0,-12 0,-17l5 -31c1,-6 1,-9 2,-16 1,-10 4,-6 4,-19 -9,0 -53,20 -66,25 -17,7 -17,8 -17,23 0,10 -1,15 -1,25 0,9 -1,15 -2,25 0,8 -1,15 -1,26z"/>
  <path class="fil2" d="M942 437c-2,-4 -1,-5 -4,-7l-15 -8c-3,-3 -3,-3 -7,-5 -24,-15 -37,-29 -57,-46l-61 -66 -29 -41c-3,-5 -5,-11 -12,-12 -1,5 -2,6 -4,10l-22 55c-7,15 -5,15 7,29l4 5c0,0 1,0 1,0 14,16 21,27 39,44l23 23c15,14 26,23 39,35l11 9c15,13 21,2 43,-6l44 -19z"/>
  <path class="fil2" d="M237 471c0,6 1,9 3,13 3,7 9,50 9,59 0,6 1,10 2,16 7,46 -2,93 -8,138 -1,8 0,8 -3,15 -2,4 -3,8 -3,14 0,7 11,1 18,-2l20 -8c5,-2 5,-3 9,-5 10,-3 24,-8 31,-13 0,-14 6,-34 6,-49l1 -57c0,-16 -1,-58 -3,-72 -6,-28 0,-19 -18,-28l-32 -12c-5,-2 -32,-17 -32,-9z"/>
  <path class="fil2" d="M249 437c3,2 6,2 9,3l34 15c22,9 33,18 42,9 0,0 0,0 1,-1l45 -40c14,-14 28,-23 43,-42 6,-7 9,-7 18,-18l15 -16c19,-20 14,-14 0,-50 -3,-8 -15,-33 -17,-43 -9,1 -10,11 -21,25 -14,17 -20,28 -36,45 -5,5 1,1 -11,12l-41 41c-3,2 -4,2 -7,4 -12,10 -34,28 -47,36l-25 16c-1,1 -1,3 -2,4z"/>
  <path class="fil2" d="M444 1016l310 0c0,-4 -5,-15 -7,-19 -4,-7 -4,-8 -14,-9 -11,-1 -11,-4 -21,-5 -4,-1 -7,-1 -11,-2 -5,0 -6,-1 -9,-2 -6,-2 -17,-2 -23,-3l-46 -5 -75 0c-10,0 -81,8 -88,12 -7,3 -16,30 -16,33z"/>
  <path class="fil2" d="M752 180l-311 0c1,4 9,22 12,25 3,3 5,3 9,3 9,1 11,4 19,5l21 5c9,1 15,2 22,2 70,7 89,6 165,-2 7,-1 12,-3 21,-4 13,-2 13,-4 20,-5 12,-2 11,-1 15,-10 2,-6 6,-11 7,-19z"/>
  <path class="fil2" d="M360 483l53 22c9,5 15,1 25,-6l2 -2c16,-11 17,-11 31,-25 2,-2 3,-2 5,-4 10,-10 19,-24 24,-30 3,-4 7,-9 8,-14 0,-6 -4,-10 -6,-15l-6 -15c-6,-15 -10,-20 -13,-31 -10,0 -11,8 -16,13l-25 26c-1,1 -1,1 -1,1 -2,2 -2,2 -4,4 -3,3 -5,5 -7,8l-32 29c-2,2 -2,2 -4,4l-28 25c-4,3 -6,4 -6,10z"/>
  <path class="fil2" d="M345 516c0,9 4,20 4,38 0,36 1,66 -1,102 -1,24 -11,35 16,22l22 -9c12,-6 22,-5 25,-14 2,-4 4,-12 5,-16 4,-27 7,-65 -3,-90 -2,-7 2,-12 -20,-18l-29 -12c0,-1 -19,-10 -19,-3z"/>
  <path class="fil2" d="M775 597c0,17 2,40 6,53 2,9 7,10 16,13l21 9c7,3 14,6 21,9 11,5 8,-8 8,-19 0,-18 -4,-97 -1,-114 0,-2 3,-35 -2,-35 -4,0 -23,9 -27,11l-14 6c-20,7 -22,4 -25,31 -2,12 -3,24 -3,36z"/>
  <path class="fil2" d="M833 483c-2,-8 -15,-17 -22,-22l-23 -22c0,0 -1,0 -1,0l-28 -28c0,0 0,-1 0,-1 -1,0 -1,0 -1,-1l-37 -40c-2,-4 -4,-6 -9,-8 -1,3 -1,5 -2,7l-16 38c-3,6 -5,8 -7,16 -1,7 10,21 15,27 2,2 3,4 5,6l3 3c1,2 1,2 2,3l21 22c3,2 1,1 3,2l6 4c0,1 0,1 1,1 4,4 24,19 28,18 7,0 56,-24 62,-25z"/>
  <path class="fil2" d="M569 418c30,0 50,2 78,-3 16,-2 15,-17 21,-29 6,-12 6,-16 10,-24 2,-5 5,-6 3,-11 -6,-3 -71,1 -85,1 -18,0 -32,-1 -50,-1 -17,0 -33,-6 -32,3 0,5 2,7 4,10l12 27c1,3 1,6 3,10 1,3 1,2 2,4 5,12 10,9 22,12 4,1 6,1 12,1z"/>
  <path class="fil2" d="M688 769c0,11 21,50 24,64 6,-1 6,-2 9,-6 9,-12 27,-29 35,-39 12,-14 47,-46 62,-60 5,-4 13,-9 15,-16 -6,-3 -54,-24 -61,-24 -4,0 -4,1 -7,3l-11 8c-4,3 -3,2 -7,5 -8,7 -14,12 -22,20 -23,22 -19,23 -28,33 -1,2 -9,10 -9,12z"/>
  <path class="fil2" d="M516 840c12,8 21,3 42,3l95 2c29,1 35,8 25,-13 -3,-6 -17,-43 -19,-46 -12,-12 -84,-8 -97,-8 -28,0 -22,4 -39,42 -2,5 -6,15 -7,20z"/>
  <path class="fil2" d="M363 712c0,12 0,6 13,16l17 14c1,0 1,0 1,0 0,0 1,1 1,1l73 68c2,3 12,14 13,17 9,-1 9,-7 11,-12l16 -40c3,-9 2,-8 -7,-20 -11,-12 -32,-35 -45,-43 -10,-7 -12,-10 -23,-18 -13,-7 -7,-8 -27,0l-43 17z"/>
  <path class="fil2" d="M458 676c0,7 14,12 24,23 8,7 13,9 25,23l5 6c4,4 6,8 11,9l6 -12c1,-4 0,-3 2,-7 1,-3 2,-2 3,-6l27 -67c3,-3 5,-9 5,-14 -8,-2 -13,3 -20,6l-62 26c-3,1 -3,2 -7,3 -4,1 -19,4 -19,10z"/>
  <path class="fil2" d="M447 596c0,17 -4,39 -4,46 12,3 5,0 17,-4l13 -5c16,-5 22,-11 32,-13l28 -12c8,-4 8,-4 18,-7 0,-10 -2,-5 -17,-12l-23 -10c-5,-2 -4,-2 -10,-3 -6,-2 -4,-2 -8,-4 -3,-2 -2,-1 -5,-2l-32 -13c-22,-12 -9,7 -9,39z"/>
  <path class="fil2" d="M675 737c6,-2 8,-9 16,-17l22 -23c6,-6 24,-18 25,-24 -11,-6 -15,-6 -25,-11l-79 -32c-7,0 -3,7 -1,11l29 69c4,10 6,22 13,27z"/>
  <path class="fil2" d="M458 523l12 5c7,3 1,-1 13,6l13 6c6,2 9,3 14,5 8,3 50,21 55,21 1,-7 -4,-15 -8,-27l-23 -53c-3,-7 -3,-7 -5,-14 -1,-4 -4,-9 -6,-13 -8,2 -21,21 -32,32 -12,13 -7,7 -16,15 -13,11 -15,9 -17,17z"/>
  <path class="fil2" d="M578 749l44 1c9,1 27,7 20,-7 -3,-5 -2,-2 -4,-9l-4 -8c-2,-4 -2,-6 -3,-10 -4,-9 -7,-13 -11,-26 -1,-4 -3,-5 -5,-9l-11 -26c-1,-3 -2,-7 -3,-10 -10,1 -7,4 -10,11 -5,13 -11,24 -16,40l-13 31c-3,6 -1,4 -3,9 -2,5 -9,12 -2,14 2,1 16,-1 21,-1z"/>
  <path class="fil2" d="M597 550c8,0 5,-5 8,-11l21 -51c2,-5 16,-36 16,-40 0,-8 -17,-1 -35,-1l-37 -1c-17,-1 -21,-3 -13,12l13 33c2,5 3,5 5,8 3,8 7,23 14,35 5,12 3,16 8,16z"/>
  <path class="fil2" d="M646 597c0,6 1,4 17,11l38 15c4,2 3,1 7,3 3,1 2,1 5,3l27 10c16,8 9,-3 9,-19l0 -40c0,-11 1,-16 1,-26 -9,-2 -8,1 -14,4l-31 12c-9,4 -2,3 -14,6l-27 11c-3,2 -3,2 -6,3 -5,3 -12,2 -12,7z"/>
  <path class="fil2" d="M630 565c5,1 7,0 12,-3l87 -36c4,-2 4,-1 7,-3 -2,-6 -10,-11 -16,-16 -3,-2 -6,-4 -8,-6l-23 -25c-5,-6 -10,-13 -16,-17 -10,19 -5,12 -8,19l-14 33c-2,3 -1,3 -3,6 -2,7 -18,42 -18,48z"/>
  <g>
   <path class="fil3 str2" d="M504 871c9,0 13,-1 23,-1 22,0 112,-1 128,3 37,7 39,-10 50,23 6,16 23,48 24,62 -7,1 -8,-1 -14,-3l-31 -4c-4,-1 -10,-1 -15,-2 -15,-2 -87,-7 -101,-5 -10,1 -22,0 -33,2l-62 5c0,-7 -3,2 -1,-6l6 -14c2,-4 3,-7 5,-11 2,-3 0,0 2,-4l14 -36c2,-4 3,-6 5,-9zm12 -31c1,-5 5,-15 7,-20 17,-38 11,-42 39,-42 13,0 85,-4 97,8 2,3 16,40 19,46 10,21 4,14 -25,13l-95 -2c-21,0 -30,5 -42,-3zm-267 -75c2,-8 7,-7 12,-9 4,-1 1,0 5,-2l35 -15c9,-3 19,-10 28,-10 3,0 36,25 40,29 27,21 33,28 55,49l17 17c2,2 3,2 5,4 1,1 1,2 2,2l10 11c0,0 0,1 0,1 19,22 16,13 10,29 -1,3 -2,7 -3,10l-20 48c-5,15 -10,4 -12,1l-57 -64c0,0 0,-1 0,-1 -1,0 -1,0 -1,-1l-48 -43c-6,-5 -4,-1 -13,-10l-65 -46zm478 102c0,-6 7,-13 10,-16 2,-2 2,-2 3,-4 1,-1 2,-2 3,-3l75 -78c1,-2 0,-1 2,-3l40 -34c3,-1 5,-2 8,-2l78 32c-6,8 -14,10 -23,18l-41 33c-10,8 -8,4 -21,18 -31,32 -41,39 -69,76l-15 20c-9,11 -9,19 -14,19 -7,0 -6,-3 -8,-9l-28 -67zm-149 -118c-5,0 -19,2 -21,1 -7,-2 0,-9 2,-14 2,-5 0,-3 3,-9l13 -31c5,-16 11,-27 16,-40 3,-7 0,-10 10,-11 1,3 2,7 3,10l11 26c2,4 4,5 5,9 4,13 7,17 11,26 1,4 1,6 3,10l4 8c2,7 1,4 4,9 7,14 -11,8 -20,7l-44 -1zm-172 -54c20,-8 14,-7 27,0 11,8 13,11 23,18 13,8 34,31 45,43 9,12 10,11 7,20l-16 40c-2,5 -2,11 -11,12 -1,-3 -11,-14 -13,-17l-73 -68c0,0 -1,-1 -1,-1 0,0 0,0 -1,0l-17 -14c-13,-10 -13,-4 -13,-16l43 -17zm282 74c0,-2 8,-10 9,-12 9,-10 5,-11 28,-33 8,-8 14,-13 22,-20 4,-3 3,-2 7,-5l11 -8c3,-2 3,-3 7,-3 7,0 55,21 61,24 -2,7 -10,12 -15,16 -15,14 -50,46 -62,60 -8,10 -26,27 -35,39 -3,4 -3,5 -9,6 -3,-14 -24,-53 -24,-64zm-230 -93c0,-6 15,-9 19,-10 4,-1 4,-2 7,-3l62 -26c7,-3 12,-8 20,-6 0,5 -2,11 -5,14l-27 67c-1,4 -2,3 -3,6 -2,4 -1,3 -2,7l-6 12c-5,-1 -7,-5 -11,-9l-5 -6c-12,-14 -17,-16 -25,-23 -10,-11 -24,-16 -24,-23zm233 44c-8,8 -10,15 -16,17 -7,-5 -9,-17 -13,-27l-29 -69c-2,-4 -6,-11 1,-11l79 32c10,5 14,5 25,11 -1,6 -19,18 -25,24l-22 23zm-45 -123c0,-5 7,-4 12,-7 3,-1 3,-1 6,-3l27 -11c12,-3 5,-2 14,-6l31 -12c6,-3 5,-6 14,-4 0,10 -1,15 -1,26l0 40c0,16 7,27 -9,19l-27 -10c-3,-2 -2,-2 -5,-3 -4,-2 -3,-1 -7,-3l-38 -15c-16,-7 -17,-5 -17,-11zm-141 23c-10,2 -16,8 -32,13l-13 5c-12,4 -5,7 -17,4 0,-7 4,-29 4,-46 0,-32 -13,-51 9,-39l32 13c3,1 2,0 5,2 4,2 2,2 8,4 6,1 5,1 10,3l23 10c15,7 17,2 17,12 -10,3 -10,3 -18,7l-28 12zm270 -23c0,-12 1,-24 3,-36 3,-27 5,-24 25,-31l14 -6c4,-2 23,-11 27,-11 5,0 2,33 2,35 -3,17 1,96 1,114 0,11 3,24 -8,19 -7,-3 -14,-6 -21,-9l-21 -9c-9,-3 -14,-4 -16,-13 -4,-13 -6,-36 -6,-53zm-411 81c-27,13 -17,2 -16,-22 2,-36 1,-66 1,-102 0,-18 -4,-29 -4,-38 0,-7 19,2 19,3l29 12c22,6 18,11 20,18 10,25 7,63 3,90 -1,4 -3,12 -5,16 -3,9 -13,8 -25,14l-22 9zm266 -113c0,-6 16,-41 18,-48 2,-3 1,-3 3,-6l14 -33c3,-7 -2,0 8,-19 6,4 11,11 16,17l23 25c2,2 5,4 8,6 6,5 14,10 16,16 -3,2 -3,1 -7,3l-87 36c-5,3 -7,4 -12,3zm-172 -42c2,-8 4,-6 17,-17 9,-8 4,-2 16,-15 11,-11 24,-30 32,-32 2,4 5,9 6,13 2,7 2,7 5,14l23 53c4,12 9,20 8,27 -5,0 -47,-18 -55,-21 -5,-2 -8,-3 -14,-5l-13 -6c-12,-7 -6,-3 -13,-6l-12 -5zm-209 20c0,-9 -6,-52 -9,-59 -2,-4 -3,-7 -3,-13 0,-8 27,7 32,9l32 12c18,9 12,0 18,28 2,14 3,56 3,72l-1 57c0,15 -6,35 -6,49 -7,5 -21,10 -31,13 -4,2 -4,3 -9,5l-20 8c-7,3 -18,9 -18,2 0,-6 1,-10 3,-14 3,-7 2,-7 3,-15 6,-45 15,-92 8,-138 -1,-6 -2,-10 -2,-16zm622 48c0,-11 1,-18 1,-26 1,-10 2,-16 2,-25 0,-10 1,-15 1,-25 0,-15 0,-16 17,-23 13,-5 57,-25 66,-25 0,13 -3,9 -4,19 -1,7 -1,10 -2,16l-5 31c0,5 0,11 0,17 -1,3 -2,11 -3,15 -1,19 -2,51 0,70 1,5 3,11 3,16 0,7 0,12 1,17l5 33c1,8 0,10 3,16 2,4 6,10 -1,10 -5,0 -28,-10 -34,-13l-31 -13c-7,-3 -15,-1 -15,-22 0,-23 -4,-56 -4,-88zm-245 -103l-21 51c-3,6 0,11 -8,11 -5,0 -3,-4 -8,-16 -7,-12 -11,-27 -14,-35 -2,-3 -3,-3 -5,-8l-13 -33c-8,-15 -4,-13 13,-12l37 1c18,0 35,-7 35,1 0,4 -14,35 -16,40zm207 -5c-6,1 -55,25 -62,25 -4,1 -24,-14 -28,-18 -1,0 -1,0 -1,-1l-6 -4c-2,-1 0,0 -3,-2l-21 -22c-1,-1 -1,-1 -2,-3l-3 -3c-2,-2 -3,-4 -5,-6 -5,-6 -16,-20 -15,-27 2,-8 4,-10 7,-16l16 -38c1,-2 1,-4 2,-7 5,2 7,4 9,8l37 40c0,1 0,1 1,1 0,0 0,1 0,1l28 28c0,0 1,0 1,0l23 22c7,5 20,14 22,22zm-473 0c0,-6 2,-7 6,-10l28 -25c2,-2 2,-2 4,-4l32 -29c2,-3 4,-5 7,-8 2,-2 2,-2 4,-4 0,0 0,0 1,-1l25 -26c5,-5 6,-13 16,-13 3,11 7,16 13,31l6 15c2,5 6,9 6,15 -1,5 -5,10 -8,14 -5,6 -14,20 -24,30 -2,2 -3,2 -5,4 -14,14 -15,14 -31,25l-2 2c-10,7 -16,11 -25,6l-53 -22zm209 -65c-6,0 -8,0 -12,-1 -12,-3 -17,0 -22,-12 -1,-2 -1,-1 -2,-4 -2,-4 -2,-7 -3,-10l-12 -27c-2,-3 -4,-5 -4,-10 -1,-9 15,-3 32,-3 18,0 32,1 50,1 14,0 79,-4 85,-1 2,5 -1,6 -3,11 -4,8 -4,12 -10,24 -6,12 -5,27 -21,29 -28,5 -48,3 -78,3zm-320 19c1,-1 1,-3 2,-4l25 -16c13,-8 35,-26 47,-36 3,-2 4,-2 7,-4l41 -41c12,-11 6,-7 11,-12 16,-17 22,-28 36,-45 11,-14 12,-24 21,-25 2,10 14,35 17,43 14,36 19,30 0,50l-15 16c-9,11 -12,11 -18,18 -15,19 -29,28 -43,42l-45 40c-1,1 -1,1 -1,1 -9,9 -20,0 -42,-9l-34 -15c-3,-1 -6,-1 -9,-3zm649 19c-22,8 -28,19 -43,6l-11 -9c-13,-12 -24,-21 -39,-35l-23 -23c-18,-17 -25,-28 -39,-44 0,0 -1,0 -1,0l-4 -5c-12,-14 -14,-14 -7,-29l22 -55c2,-4 3,-5 4,-10 7,1 9,7 12,12l29 41 61 66c20,17 33,31 57,46 4,2 4,2 7,5l15 8c3,2 2,3 4,7l-44 19zm-344 -131c-8,0 -14,-2 -19,-2 -18,-3 -33,0 -37,-7l-23 -53c-6,-16 -6,-10 -6,-25 5,1 7,3 12,4 4,1 10,1 14,1l55 6c9,1 16,3 27,3l136 -10c7,-1 7,-3 13,-4 0,12 -2,10 -4,19 -2,4 -1,4 -4,8l-19 47c-4,12 -12,8 -24,9 -13,1 -27,4 -40,4l-81 0zm-419 81l0 15c7,2 1,3 16,10l18 8c5,2 7,1 12,4 4,2 9,3 13,5 16,9 11,19 16,34 6,15 10,40 12,56 0,6 5,55 4,62 -1,10 -1,21 -1,33 -1,13 -9,61 -12,74 -1,5 -3,6 -4,12 -2,10 -2,20 -7,26 -4,4 -42,19 -47,21 -21,8 -11,11 -20,13l0 11c8,2 3,4 11,8 9,4 16,-2 28,-6 7,-3 7,-2 12,-5 3,-2 4,-2 7,-3 3,-1 4,-2 7,-3 16,-8 20,-1 29,4l8 5c3,1 3,1 6,3l26 18c5,4 5,5 10,8 14,8 57,47 69,58l52 57c5,4 4,5 8,10 14,17 22,22 17,33l-10 26c-2,5 -4,7 -5,13l34 0c0,-3 9,-30 16,-33 7,-4 78,-12 88,-12l75 0 46 5c6,1 17,1 23,3 3,1 4,2 9,2 4,1 7,1 11,2 10,1 10,4 21,5 10,1 10,2 14,9 2,4 7,15 7,19l34 0c0,-8 1,-1 -2,-6l-5 -12c-1,-3 -2,-4 -3,-7 -1,-5 -4,-9 -3,-14l44 -64c2,-2 3,-3 4,-4 2,-3 2,-3 4,-6 2,-1 3,-2 4,-4l11 -12c2,-2 1,-1 3,-3l5 -6c0,0 0,0 1,0l19 -22c14,-12 34,-30 49,-42l52 -37c9,-7 11,-3 26,2 3,1 3,2 6,3l20 8c6,2 18,9 26,7 10,-3 2,-6 12,-7l0 -15c-6,-2 -5,-4 -11,-7l-23 -11c-3,-1 -28,-8 -35,-15 -3,-3 -13,-47 -14,-53 -2,-14 -7,-47 -7,-61l0 -66 8 -60c1,-5 2,-9 3,-13 2,-17 3,-8 6,-28 1,-6 1,-7 6,-10l47 -21c21,-8 11,-11 20,-13l0 -11c-8,-2 -7,-14 -25,-7l-52 21c-6,2 -6,3 -12,-1l-23 -14c-4,-2 -2,0 -6,-3l-46 -34c-16,-14 -33,-28 -47,-43l-16 -19c0,0 0,0 0,-1 -1,0 -1,0 -1,0 -3,-3 -6,-6 -8,-10 -3,-3 -5,-6 -8,-10 -2,-4 -4,-6 -7,-10l-29 -43c-8,-14 -10,-16 -5,-26 3,-5 3,-8 5,-13 2,-5 4,-7 5,-13l-34 0c-1,8 -5,13 -7,19 -4,9 -3,8 -15,10 -7,1 -7,3 -20,5 -9,1 -14,3 -21,4 -76,8 -95,9 -165,2 -7,0 -13,-1 -22,-2l-21 -5c-8,-1 -10,-4 -19,-5 -4,0 -6,0 -9,-3 -3,-3 -11,-21 -12,-25l-33 0 13 32c4,9 0,11 -5,20l-7 11c-3,4 -2,3 -4,6l-25 35c0,0 0,0 -1,0l-42 48c-5,4 -5,6 -9,10l-49 39c0,0 0,0 0,1l-57 36c-10,5 -8,5 -24,-1l-26 -11c-6,-2 -17,-9 -26,-7 -9,4 -1,6 -11,7z"/>
   <path id="1" class="fil4" d="M504 871c9,0 13,-1 23,-1 22,0 112,-1 128,3 37,7 39,-10 50,23 6,16 23,48 24,62 -7,1 -8,-1 -14,-3l-31 -4c-4,-1 -10,-1 -15,-2 -15,-2 -87,-7 -101,-5 -10,1 -22,0 -33,2l-62 5c0,-7 -3,2 -1,-6l6 -14c2,-4 3,-7 5,-11 2,-3 0,0 2,-4l14 -36c2,-4 3,-6 5,-9zm12 -31c1,-5 5,-15 7,-20 17,-38 11,-42 39,-42 13,0 85,-4 97,8 2,3 16,40 19,46 10,21 4,14 -25,13l-95 -2c-21,0 -30,5 -42,-3zm-267 -75c2,-8 7,-7 12,-9 4,-1 1,0 5,-2l35 -15c9,-3 19,-10 28,-10 3,0 36,25 40,29 27,21 33,28 55,49l17 17c2,2 3,2 5,4 1,1 1,2 2,2l10 11c0,0 0,1 0,1 19,22 16,13 10,29 -1,3 -2,7 -3,10l-20 48c-5,15 -10,4 -12,1l-57 -64c0,0 0,-1 0,-1 -1,0 -1,0 -1,-1l-48 -43c-6,-5 -4,-1 -13,-10l-65 -46zm478 102c0,-6 7,-13 10,-16 2,-2 2,-2 3,-4 1,-1 2,-2 3,-3l75 -78c1,-2 0,-1 2,-3l40 -34c3,-1 5,-2 8,-2l78 32c-6,8 -14,10 -23,18l-41 33c-10,8 -8,4 -21,18 -31,32 -41,39 -69,76l-15 20c-9,11 -9,19 -14,19 -7,0 -6,-3 -8,-9l-28 -67zm-149 -118c-5,0 -19,2 -21,1 -7,-2 0,-9 2,-14 2,-5 0,-3 3,-9l13 -31c5,-16 11,-27 16,-40 3,-7 0,-10 10,-11 1,3 2,7 3,10l11 26c2,4 4,5 5,9 4,13 7,17 11,26 1,4 1,6 3,10l4 8c2,7 1,4 4,9 7,14 -11,8 -20,7l-44 -1zm-172 -54c20,-8 14,-7 27,0 11,8 13,11 23,18 13,8 34,31 45,43 9,12 10,11 7,20l-16 40c-2,5 -2,11 -11,12 -1,-3 -11,-14 -13,-17l-73 -68c0,0 -1,-1 -1,-1 0,0 0,0 -1,0l-17 -14c-13,-10 -13,-4 -13,-16l43 -17zm282 74c0,-2 8,-10 9,-12 9,-10 5,-11 28,-33 8,-8 14,-13 22,-20 4,-3 3,-2 7,-5l11 -8c3,-2 3,-3 7,-3 7,0 55,21 61,24 -2,7 -10,12 -15,16 -15,14 -50,46 -62,60 -8,10 -26,27 -35,39 -3,4 -3,5 -9,6 -3,-14 -24,-53 -24,-64zm-230 -93c0,-6 15,-9 19,-10 4,-1 4,-2 7,-3l62 -26c7,-3 12,-8 20,-6 0,5 -2,11 -5,14l-27 67c-1,4 -2,3 -3,6 -2,4 -1,3 -2,7l-6 12c-5,-1 -7,-5 -11,-9l-5 -6c-12,-14 -17,-16 -25,-23 -10,-11 -24,-16 -24,-23zm233 44c-8,8 -10,15 -16,17 -7,-5 -9,-17 -13,-27l-29 -69c-2,-4 -6,-11 1,-11l79 32c10,5 14,5 25,11 -1,6 -19,18 -25,24l-22 23zm-45 -123c0,-5 7,-4 12,-7 3,-1 3,-1 6,-3l27 -11c12,-3 5,-2 14,-6l31 -12c6,-3 5,-6 14,-4 0,10 -1,15 -1,26l0 40c0,16 7,27 -9,19l-27 -10c-3,-2 -2,-2 -5,-3 -4,-2 -3,-1 -7,-3l-38 -15c-16,-7 -17,-5 -17,-11zm-141 23c-10,2 -16,8 -32,13l-13 5c-12,4 -5,7 -17,4 0,-7 4,-29 4,-46 0,-32 -13,-51 9,-39l32 13c3,1 2,0 5,2 4,2 2,2 8,4 6,1 5,1 10,3l23 10c15,7 17,2 17,12 -10,3 -10,3 -18,7l-28 12zm270 -23c0,-12 1,-24 3,-36 3,-27 5,-24 25,-31l14 -6c4,-2 23,-11 27,-11 5,0 2,33 2,35 -3,17 1,96 1,114 0,11 3,24 -8,19 -7,-3 -14,-6 -21,-9l-21 -9c-9,-3 -14,-4 -16,-13 -4,-13 -6,-36 -6,-53zm-411 81c-27,13 -17,2 -16,-22 2,-36 1,-66 1,-102 0,-18 -4,-29 -4,-38 0,-7 19,2 19,3l29 12c22,6 18,11 20,18 10,25 7,63 3,90 -1,4 -3,12 -5,16 -3,9 -13,8 -25,14l-22 9zm266 -113c0,-6 16,-41 18,-48 2,-3 1,-3 3,-6l14 -33c3,-7 -2,0 8,-19 6,4 11,11 16,17l23 25c2,2 5,4 8,6 6,5 14,10 16,16 -3,2 -3,1 -7,3l-87 36c-5,3 -7,4 -12,3zm-172 -42c2,-8 4,-6 17,-17 9,-8 4,-2 16,-15 11,-11 24,-30 32,-32 2,4 5,9 6,13 2,7 2,7 5,14l23 53c4,12 9,20 8,27 -5,0 -47,-18 -55,-21 -5,-2 -8,-3 -14,-5l-13 -6c-12,-7 -6,-3 -13,-6l-12 -5zm-209 20c0,-9 -6,-52 -9,-59 -2,-4 -3,-7 -3,-13 0,-8 27,7 32,9l32 12c18,9 12,0 18,28 2,14 3,56 3,72l-1 57c0,15 -6,35 -6,49 -7,5 -21,10 -31,13 -4,2 -4,3 -9,5l-20 8c-7,3 -18,9 -18,2 0,-6 1,-10 3,-14 3,-7 2,-7 3,-15 6,-45 15,-92 8,-138 -1,-6 -2,-10 -2,-16zm622 48c0,-11 1,-18 1,-26 1,-10 2,-16 2,-25 0,-10 1,-15 1,-25 0,-15 0,-16 17,-23 13,-5 57,-25 66,-25 0,13 -3,9 -4,19 -1,7 -1,10 -2,16l-5 31c0,5 0,11 0,17 -1,3 -2,11 -3,15 -1,19 -2,51 0,70 1,5 3,11 3,16 0,7 0,12 1,17l5 33c1,8 0,10 3,16 2,4 6,10 -1,10 -5,0 -28,-10 -34,-13l-31 -13c-7,-3 -15,-1 -15,-22 0,-23 -4,-56 -4,-88zm-245 -103l-21 51c-3,6 0,11 -8,11 -5,0 -3,-4 -8,-16 -7,-12 -11,-27 -14,-35 -2,-3 -3,-3 -5,-8l-13 -33c-8,-15 -4,-13 13,-12l37 1c18,0 35,-7 35,1 0,4 -14,35 -16,40zm207 -5c-6,1 -55,25 -62,25 -4,1 -24,-14 -28,-18 -1,0 -1,0 -1,-1l-6 -4c-2,-1 0,0 -3,-2l-21 -22c-1,-1 -1,-1 -2,-3l-3 -3c-2,-2 -3,-4 -5,-6 -5,-6 -16,-20 -15,-27 2,-8 4,-10 7,-16l16 -38c1,-2 1,-4 2,-7 5,2 7,4 9,8l37 40c0,1 0,1 1,1 0,0 0,1 0,1l28 28c0,0 1,0 1,0l23 22c7,5 20,14 22,22zm-473 0c0,-6 2,-7 6,-10l28 -25c2,-2 2,-2 4,-4l32 -29c2,-3 4,-5 7,-8 2,-2 2,-2 4,-4 0,0 0,0 1,-1l25 -26c5,-5 6,-13 16,-13 3,11 7,16 13,31l6 15c2,5 6,9 6,15 -1,5 -5,10 -8,14 -5,6 -14,20 -24,30 -2,2 -3,2 -5,4 -14,14 -15,14 -31,25l-2 2c-10,7 -16,11 -25,6l-53 -22zm209 -65c-6,0 -8,0 -12,-1 -12,-3 -17,0 -22,-12 -1,-2 -1,-1 -2,-4 -2,-4 -2,-7 -3,-10l-12 -27c-2,-3 -4,-5 -4,-10 -1,-9 15,-3 32,-3 18,0 32,1 50,1 14,0 79,-4 85,-1 2,5 -1,6 -3,11 -4,8 -4,12 -10,24 -6,12 -5,27 -21,29 -28,5 -48,3 -78,3zm-320 19c1,-1 1,-3 2,-4l25 -16c13,-8 35,-26 47,-36 3,-2 4,-2 7,-4l41 -41c12,-11 6,-7 11,-12 16,-17 22,-28 36,-45 11,-14 12,-24 21,-25 2,10 14,35 17,43 14,36 19,30 0,50l-15 16c-9,11 -12,11 -18,18 -15,19 -29,28 -43,42l-45 40c-1,1 -1,1 -1,1 -9,9 -20,0 -42,-9l-34 -15c-3,-1 -6,-1 -9,-3zm649 19c-22,8 -28,19 -43,6l-11 -9c-13,-12 -24,-21 -39,-35l-23 -23c-18,-17 -25,-28 -39,-44 0,0 -1,0 -1,0l-4 -5c-12,-14 -14,-14 -7,-29l22 -55c2,-4 3,-5 4,-10 7,1 9,7 12,12l29 41 61 66c20,17 33,31 57,46 4,2 4,2 7,5l15 8c3,2 2,3 4,7l-44 19zm-344 -131c-8,0 -14,-2 -19,-2 -18,-3 -33,0 -37,-7l-23 -53c-6,-16 -6,-10 -6,-25 5,1 7,3 12,4 4,1 10,1 14,1l55 6c9,1 16,3 27,3l136 -10c7,-1 7,-3 13,-4 0,12 -2,10 -4,19 -2,4 -1,4 -4,8l-19 47c-4,12 -12,8 -24,9 -13,1 -27,4 -40,4l-81 0zm-419 81l0 15c7,2 1,3 16,10l18 8c5,2 7,1 12,4 4,2 9,3 13,5 16,9 11,19 16,34 6,15 10,40 12,56 0,6 5,55 4,62 -1,10 -1,21 -1,33 -1,13 -9,61 -12,74 -1,5 -3,6 -4,12 -2,10 -2,20 -7,26 -4,4 -42,19 -47,21 -21,8 -11,11 -20,13l0 11c8,2 3,4 11,8 9,4 16,-2 28,-6 7,-3 7,-2 12,-5 3,-2 4,-2 7,-3 3,-1 4,-2 7,-3 16,-8 20,-1 29,4l8 5c3,1 3,1 6,3l26 18c5,4 5,5 10,8 14,8 57,47 69,58l52 57c5,4 4,5 8,10 14,17 22,22 17,33l-10 26c-2,5 -4,7 -5,13l34 0c0,-3 9,-30 16,-33 7,-4 78,-12 88,-12l75 0 46 5c6,1 17,1 23,3 3,1 4,2 9,2 4,1 7,1 11,2 10,1 10,4 21,5 10,1 10,2 14,9 2,4 7,15 7,19l34 0c0,-8 1,-1 -2,-6l-5 -12c-1,-3 -2,-4 -3,-7 -1,-5 -4,-9 -3,-14l44 -64c2,-2 3,-3 4,-4 2,-3 2,-3 4,-6 2,-1 3,-2 4,-4l11 -12c2,-2 1,-1 3,-3l5 -6c0,0 0,0 1,0l19 -22c14,-12 34,-30 49,-42l52 -37c9,-7 11,-3 26,2 3,1 3,2 6,3l20 8c6,2 18,9 26,7 10,-3 2,-6 12,-7l0 -15c-6,-2 -5,-4 -11,-7l-23 -11c-3,-1 -28,-8 -35,-15 -3,-3 -13,-47 -14,-53 -2,-14 -7,-47 -7,-61l0 -66 8 -60c1,-5 2,-9 3,-13 2,-17 3,-8 6,-28 1,-6 1,-7 6,-10l47 -21c21,-8 11,-11 20,-13l0 -11c-8,-2 -7,-14 -25,-7l-52 21c-6,2 -6,3 -12,-1l-23 -14c-4,-2 -2,0 -6,-3l-46 -34c-16,-14 -33,-28 -47,-43l-16 -19c0,0 0,0 0,-1 -1,0 -1,0 -1,0 -3,-3 -6,-6 -8,-10 -3,-3 -5,-6 -8,-10 -2,-4 -4,-6 -7,-10l-29 -43c-8,-14 -10,-16 -5,-26 3,-5 3,-8 5,-13 2,-5 4,-7 5,-13l-34 0c-1,8 -5,13 -7,19 -4,9 -3,8 -15,10 -7,1 -7,3 -20,5 -9,1 -14,3 -21,4 -76,8 -95,9 -165,2 -7,0 -13,-1 -22,-2l-21 -5c-8,-1 -10,-4 -19,-5 -4,0 -6,0 -9,-3 -3,-3 -11,-21 -12,-25l-33 0 13 32c4,9 0,11 -5,20l-7 11c-3,4 -2,3 -4,6l-25 35c0,0 0,0 -1,0l-42 48c-5,4 -5,6 -9,10l-49 39c0,0 0,0 0,1l-57 36c-10,5 -8,5 -24,-1l-26 -11c-6,-2 -17,-9 -26,-7 -9,4 -1,6 -11,7z"/>
  </g>
 </g>
</svg>
